<svg width="0" height="0" style="position:absolute"><defs><svg version="1.0" viewBox="0 0 24 24" xml:space="preserve" id="abn" xmlns="http://www.w3.org/2000/svg"><path fill-rule="evenodd" clip-rule="evenodd" d="M21 2.6c1.4 0 2.5 1.1 2.5 2.5V19c0 1.4-1.1 2.5-2.5 2.5H3C1.6 21.5.5 20.4.5 19V5C.5 3.6 1.6 2.5 3 2.5h18zm0 .9H3c-.9 0-1.6.7-1.6 1.5v14c0 .8.7 1.5 1.5 1.5h18c.8 0 1.5-.7 1.5-1.5V5c.2-.8-.5-1.5-1.4-1.5zM3.6 14.1c0-.1 0-.2.1-.3l2-4.5c.1-.3.4-.5.7-.5h.1c.3 0 .6.2.7.5l2 4.5c0 .1.1.2.1.3 0 .3-.3.6-.6.6s-.5-.2-.6-.4l-.4-.9H5.2l-.4.9c-.1.2-.3.4-.6.4s-.6-.3-.6-.6zm2.1-1.8h1.6l-.8-1.9-.8 1.9zM9.8 14V9.6c0-.3.3-.6.6-.6h2c.7 0 1.2.2 1.5.5.3.3.4.6.4 1 0 .6-.3 1-.7 1.2.7.3 1.1.6 1.1 1.4 0 1-.8 1.6-2.1 1.6h-2.1c-.4-.1-.7-.3-.7-.7zm1.3-2.7h1.2c.6 0 .9-.2.9-.6 0-.4-.3-.6-.8-.6h-1.2v1.2zm0 2.2h1.5c.6 0 .9-.2.9-.6 0-.4-.3-.6-.9-.6h-1.4v1.2zm4.2.6V9.5c0-.3.3-.6.6-.6h.1c.3 0 .5.1.7.4l2.4 3.2v-3c0-.3.3-.6.6-.6s.6.3.6.6V14c0 .3-.3.6-.6.6s-.5-.1-.7-.4L16.5 11v3c0 .3-.3.6-.6.6-.3.1-.6-.2-.6-.5z"/></svg><svg version="1.0" viewBox="0 0 24 24" xml:space="preserve" id="account" xmlns="http://www.w3.org/2000/svg"><path d="M18 22.6H6c-2.5 0-4.6-2.1-4.6-4.6V6c0-2.5 2.1-4.6 4.6-4.6h12c2.5 0 4.6 2.1 4.6 4.6v12c0 2.5-2.1 4.6-4.6 4.6zm-8-2h8c1.4 0 2.6-1.2 2.6-2.6V6c0-1.4-1.2-2.6-2.6-2.6h-8v17.2zM6 3.4C4.6 3.4 3.4 4.6 3.4 6v12c0 1.4 1.2 2.6 2.6 2.6h2V3.4H6zm7.8 10.8h-.6c-.6 0-1-.4-1-1s.4-1 1-1h.6c.6 0 1 .4 1 1s-.4 1-1 1zm3-3.6h-3.6c-.6 0-1-.4-1-1s.4-1 1-1h3.6c.6 0 1 .4 1 1s-.4 1-1 1zm0-3.6h-3.6c-.6 0-1-.4-1-1s.4-1 1-1h3.6c.6 0 1 .4 1 1s-.4 1-1 1z"/></svg><svg version="1.0" viewBox="0 0 24 24" xml:space="preserve" id="actions" xmlns="http://www.w3.org/2000/svg"><path d="M4.9 10.3c.9-.6 2.1-.3 2.8.6.6.9.3 2.1-.6 2.8s-2.1.3-2.8-.6c-.6-.9-.3-2.1.6-2.8zM18 10c1.1 0 2 .9 2 2s-.9 2-2 2-2-.9-2-2 .9-2 2-2zm-6 0c1.1 0 2 .9 2 2s-.9 2-2 2-2-.9-2-2 .9-2 2-2z"/></svg><svg version="1.0" viewBox="0 0 24 24" xml:space="preserve" id="actions-vert" xmlns="http://www.w3.org/2000/svg"><path d="M10.3 19.1c-.6-.9-.3-2.1.6-2.8.9-.6 2.1-.3 2.8.6.7.9.3 2.1-.6 2.8-.9.6-2.1.3-2.8-.6zM10 6c0-1.1.9-2 2-2s2 .9 2 2-.9 2-2 2-2-.9-2-2zm0 6c0-1.1.9-2 2-2s2 .9 2 2-.9 2-2 2-2-.9-2-2z"/></svg><svg version="1.0" viewBox="0 0 24 24" xml:space="preserve" id="add" xmlns="http://www.w3.org/2000/svg"><path d="M13 7.2c0-.6-.4-1-1-1s-1 .4-1 1h2zm-2 9.6c0 .6.4 1 1 1s1-.4 1-1h-2zm5.8-3.8c.6 0 1-.4 1-1s-.4-1-1-1v2zm-9.6-2c-.6 0-1 .4-1 1s.4 1 1 1v-2zm13.4 1c0 4.7-3.9 8.6-8.6 8.6v2c5.9 0 10.6-4.7 10.6-10.6h-2zM12 20.6c-4.7 0-8.6-3.9-8.6-8.6h-2c0 5.9 4.7 10.6 10.6 10.6v-2zM3.4 12c0-4.7 3.9-8.6 8.6-8.6v-2C6.1 1.4 1.4 6.1 1.4 12h2zM12 3.4c4.7 0 8.6 3.9 8.6 8.6h2c0-5.9-4.7-10.6-10.6-10.6v2zm-1 3.8V12h2V7.2h-2zm0 4.8v4.8h2V12h-2zm5.8-1H12v2h4.8v-2zM12 11H7.2v2H12v-2z"/></svg><svg version="1.0" viewBox="0 0 24 24" xml:space="preserve" id="agri-business" xmlns="http://www.w3.org/2000/svg"><path d="M12 21.1c-.6 0-1-.4-1-1V14c-4.5-.5-8-4.3-8-8.9 0-.4 0-.9.1-1.3.1-.5.5-.9 1-.9 3.4 0 6.4 2 7.9 4.9 1.5-2.9 4.5-4.9 7.9-4.9.5 0 .9.4 1 .9.1.4.1.8.1 1.3 0 4.6-3.5 8.4-8 8.9v6.1c0 .5-.4 1-1 1zM19 5c-3.4.5-6 3.4-6 6.9v.1c3.4-.5 6-3.4 6-7zM5 5c0 3.6 2.6 6.5 6 7v-.1C11 8.4 8.4 5.5 5 5z"/></svg><svg version="1.0" viewBox="0 0 24 24" xml:space="preserve" id="arrow-down" xmlns="http://www.w3.org/2000/svg"><path d="M12 16.5c-.3 0-.5-.1-.7-.3l-7-7c-.4-.4-.4-1 0-1.4s1-.4 1.4 0l6.3 6.3 6.3-6.3c.4-.4 1-.4 1.4 0s.4 1 0 1.4l-7 7c-.2.2-.4.3-.7.3z"/></svg><svg version="1.0" viewBox="0 0 24 24" xml:space="preserve" id="arrow-left" xmlns="http://www.w3.org/2000/svg"><path d="M15.5 20c-.3 0-.5-.1-.7-.3l-7-7c-.4-.4-.4-1 0-1.4l7-7c.4-.4 1-.4 1.4 0s.4 1 0 1.4L9.9 12l6.3 6.3c.4.4.4 1 0 1.4-.2.2-.5.3-.7.3z"/></svg><svg version="1.0" viewBox="0 0 24 24" xml:space="preserve" id="arrow-right" xmlns="http://www.w3.org/2000/svg"><path d="M8.5 20c-.3 0-.5-.1-.7-.3-.4-.4-.4-1 0-1.4l6.3-6.3-6.3-6.3c-.4-.4-.4-1 0-1.4s1-.4 1.4 0l7 7c.4.4.4 1 0 1.4l-7 7c-.2.2-.4.3-.7.3z"/></svg><svg version="1.0" viewBox="0 0 24 24" xml:space="preserve" id="arrow-up" xmlns="http://www.w3.org/2000/svg"><path d="M19 16.5c-.3 0-.5-.1-.7-.3L12 9.9l-6.3 6.3c-.4.4-1 .4-1.4 0s-.4-1 0-1.4l7-7c.4-.4 1-.4 1.4 0l7 7c.4.4.4 1 0 1.4-.2.2-.5.3-.7.3z"/></svg><svg version="1.0" viewBox="0 0 24 24" xml:space="preserve" id="asset-finance" xmlns="http://www.w3.org/2000/svg"><path opacity=".91" d="M22 21H2c-.6 0-1-.4-1-1s.4-1 1-1h1v-4.6c0-.6 0-.9.1-1.3.1-.3.2-.6.4-.9.2-.3.5-.5.9-.9L6 9.8V7.2c0-1.2 0-1.9.3-2.6.3-.6.7-1 1.3-1.3C8.3 3 9 3 10.2 3h6.6c1.2 0 1.9 0 2.6.3.6.3 1 .7 1.3 1.3.3.7.3 1.4.3 2.6V19h1c.6 0 1 .4 1 1s-.4 1-1 1zm-6-2h3V7.2c0-.9 0-1.4-.1-1.7-.1-.2-.2-.3-.4-.4-.3-.1-.8-.1-1.7-.1h-6.6c-.9 0-1.4 0-1.7.1l-.4.4c-.1.3-.1.8-.1 1.7v.9l.6-.3c.6-.2 1.2-.2 1.7 0 .7.2 1.2.6 2 1.4l2.3 2.1c.4.4.7.6.9.9.2.3.3.6.4.9.1.4.1.7.1 1.3V19zM5 19h9v-5.4c0-.1-.1-.2-.1-.3-.1-.1-.3-.3-.6-.5L11 10.7c-.6-.5-1-.9-1.2-.9-.2-.1-.4-.1-.6 0-.2 0-.6.3-1.2.9l-2.3 2.1c-.3.3-.5.4-.6.5-.1.1-.1.2-.1.3V19z"/></svg><svg version="1.0" viewBox="0 0 24 25" xml:space="preserve" id="attach" xmlns="http://www.w3.org/2000/svg"><path d="M7.5 24.1c-1.4 0-3.1-.5-4.7-2.1-2.6-2.6-2.3-5.3-1.6-7.1.7-1.9 1.9-3.1 2-3.2L13.4 1.5c.1-.1.9-.9 2.2-1.3 1.7-.6 3.5-.1 4.9 1.3 1.4 1.4 1.9 3.2 1.3 4.9-.4 1.2-1.2 2.1-1.3 2.2l-9.9 9.9c-.9.9-2.7 1.6-4.2 0-.9-.9-1.1-1.9-.8-3 .2-.7.7-1.2.8-1.3L15.6 5c.4-.4 1-.4 1.4 0s.4 1 0 1.4l-9.2 9.2c-.3.3-.6.8 0 1.4.6.6 1.1.3 1.4 0l9.9-9.9c.3-.4 2-2.2 0-4.2s-3.9-.3-4.2 0L4.6 13.1c-3.8 3.8-.7 7.1-.4 7.4.4.4 3.6 3.4 7.4-.4l9.9-9.9c.4-.4 1-.4 1.4 0s.4 1 0 1.4L13 21.5c-.1.1-1.3 1.3-3.2 2-.6.4-1.4.6-2.3.6z"/></svg><svg version="1.0" viewBox="0 0 25 24" xml:space="preserve" id="backspace" xmlns="http://www.w3.org/2000/svg"><path d="M20.4 22H8.3C7 22 5.8 21.4 5 20.3l-5-7.1c-.5-.7-.5-1.6 0-2.3l5.1-7.2C5.8 2.6 7 2 8.3 2h12.1c2.2 0 4 1.8 4 4v12c0 2.2-1.8 4-4 4zM1.6 12l5.1 7.2c.4.5 1 .8 1.6.8h12.1c1.1 0 2-.9 2-2V6c0-1.1-.9-2-2-2H8.3c-.6 0-1.2.3-1.6.8L1.6 12zm0 0zm14.8 4c-.3 0-.5-.1-.7-.3l-2.3-2.3-2.3 2.3c-.4.4-1 .4-1.4 0s-.4-1 0-1.4L12 12 9.7 9.7c-.4-.4-.4-1 0-1.4s1-.4 1.4 0l2.3 2.3 2.3-2.3c.4-.4 1-.4 1.4 0s.4 1 0 1.4L14.8 12l2.3 2.3c.4.4.4 1 0 1.4-.2.2-.5.3-.7.3z"/></svg><svg version="1.0" viewBox="0 0 24 24" xml:space="preserve" id="backward" xmlns="http://www.w3.org/2000/svg"><path fill-rule="evenodd" clip-rule="evenodd" d="M20.7 7.9c0-.4-.4-.6-.8-.4l-6.1 4.1c-.3.2-.3.6 0 .8l6.1 4.1c.3.2.8 0 .8-.4V7.9zm-1.9-2.1c1.7-1.1 3.9.1 3.9 2.1v8.2c0 2-2.2 3.2-3.9 2.1l-6.1-4.1c-.1-.1-.2-.1-.3-.2v2.2c0 2-2.2 3.2-3.9 2.1l-6.1-4.1c-1.5-1-1.5-3.2 0-4.1l6.1-4.1c1.7-1.1 3.9.1 3.9 2.1v2.2c.1-.1.2-.2.3-.2l6.1-4.2zm-8.4 2.1c0-.4-.4-.6-.8-.4l-6.1 4.1c-.3.2-.3.6 0 .8l6.1 4.1c.3.2.8 0 .8-.4V7.9z"/></svg><svg version="1.0" viewBox="0 0 24 24" xml:space="preserve" id="bag" xmlns="http://www.w3.org/2000/svg"><path d="m4.7 1.7.8.6-.8-.6zm14.6 0-.8.6.8-.6zm2.2 2.7.8-.6-.8.6zm-19 0-.8-.6.8.6zM17 10c0-.6-.4-1-1-1s-1 .4-1 1h2zm-8 0c0-.6-.4-1-1-1s-1 .4-1 1h2zm13.3-6.2L20 1.1l-1.5 1.3 2.3 2.7 1.5-1.3zM17.7 0H6.3v2h11.5V0zM4 1.1 1.7 3.8l1.5 1.3 2.3-2.7L4 1.1zM23 20V5.7h-2V20h2zM1 5.7V20h2V5.7H1zM5 24h14v-2H5v2zm-4-4c0 2.2 1.8 4 4 4v-2c-1.1 0-2-.9-2-2H1zm20 0c0 1.1-.9 2-2 2v2c2.2 0 4-1.8 4-4h-2zM6.3 0C5.4 0 4.5.4 4 1.1l1.5 1.3c.2-.3.5-.4.8-.4V0zM20 1.1C19.5.4 18.6 0 17.7 0v2c.3 0 .6.1.8.4L20 1.1zm.8 4c.1.2.2.4.2.6h2c0-.7-.2-1.4-.7-1.9l-1.5 1.3zM1.7 3.8C1.2 4.3 1 5 1 5.7h2c0-.2.1-.5.2-.6L1.7 3.8zM2 6.5h20v-2H2v2zM15 10c0 1.7-1.3 3-3 3v2c2.8 0 5-2.2 5-5h-2zm-3 3c-1.7 0-3-1.3-3-3H7c0 2.8 2.2 5 5 5v-2z"/></svg><svg version="1.0" viewBox="0 0 24 24" xml:space="preserve" id="bank" xmlns="http://www.w3.org/2000/svg"><path d="M21.6 22.6H2.4c-.6 0-1-.4-1-1v-3.2c0-.6.4-1 1-1h19.2c.6 0 1 .4 1 1v3.2c0 .6-.4 1-1 1zm-18.2-2h17.2v-1.2H3.4v1.2zM20 16c-.6 0-1-.4-1-1v-2.7c0-.6.4-1 1-1s1 .4 1 1V15c0 .6-.4 1-1 1zm-5.3 0c-.6 0-1-.4-1-1v-2.7c0-.6.4-1 1-1s1 .4 1 1V15c0 .6-.5 1-1 1zm-5.4 0c-.6 0-1-.4-1-1v-2.7c0-.6.4-1 1-1s1 .4 1 1V15c0 .6-.4 1-1 1zM4 16c-.6 0-1-.4-1-1v-2.7c0-.6.4-1 1-1s1 .4 1 1V15c0 .6-.4 1-1 1zm17.6-6.2H2.4c-.6 0-1-.4-1-1V6.7c0-.4.2-.7.6-.9l9.2-4.3c.3-.1.6-.1.8 0l10 4.3c.4.2.6.5.6.9v2.1c0 .6-.4 1-1 1zm-18.2-2h17.2v-.5l-9-3.8-8.2 3.8v.5z"/></svg><svg version="1.0" viewBox="0 0 24 24" xml:space="preserve" id="bookmark" xmlns="http://www.w3.org/2000/svg"><path d="M4.5 21.9c-.2 0-.5-.1-.7-.2-.5-.2-.8-.7-.8-1.3V7.1c0-2.8 2.2-5 5-5h8c2.8 0 5 2.2 5 5v13.4c0 .6-.3 1.1-.8 1.3-.5.3-1.1.2-1.6-.1l-6.1-4.2c-.3-.2-.8-.2-1.1 0l-6.1 4.2c-.2.2-.5.2-.8.2zm9.2-6.1 5.3 3.7V7.1c0-1.7-1.3-3-3-3H8c-1.7 0-3 1.3-3 3v12.4l5.3-3.7c1-.7 2.4-.7 3.4 0z"/></svg><svg version="1.0" viewBox="0 0 24 24" xml:space="preserve" id="bsb-acc" xmlns="http://www.w3.org/2000/svg"><path fill-rule="evenodd" clip-rule="evenodd" d="M21.3 2.2c1.4 0 2.6 1.1 2.6 2.6v14.5c0 1.4-1.1 2.6-2.6 2.6H2.7c-1.4 0-2.6-1.1-2.6-2.6V4.8c0-1.4 1.1-2.6 2.6-2.6h18.6zm0 1H2.7c-.9 0-1.6.7-1.6 1.6v14.5c0 .9.7 1.6 1.6 1.6h18.6c.9 0 1.6-.7 1.6-1.6V4.8c0-.9-.7-1.6-1.6-1.6zM6.5 15.5c-.4 0-.7-.3-.7-.7v-4.5l-.5.1H5c-.3 0-.6-.3-.6-.6s.2-.5.5-.6l.9-.3c.3-.1.5-.1.7-.1.4 0 .7.3.7.7v5.3c0 .4-.3.7-.7.7zm2-.7c0 .4.3.7.8.7h3.5c.3 0 .6-.3.6-.6s-.3-.6-.6-.6h-2.3l1.1-.8c1.2-.9 1.7-1.4 1.7-2.5 0-1.2-.9-2-2.2-2-1 0-1.6.4-2.1 1-.1.1-.2.3-.2.4 0 .4.3.7.7.7.2 0 .4-.1.5-.2.4-.4.7-.6 1.1-.6.5 0 .9.3.9.8s-.3.9-1.1 1.6l-2 1.3c-.3.2-.4.5-.4.8zm10.6-1.4c0 1.2-.9 2.1-2.3 2.1-.9 0-1.6-.3-2.2-.7-.1-.1-.2-.3-.2-.5 0-.4.3-.7.7-.7.2 0 .3.1.5.2.4.3.8.5 1.3.5s.9-.3.9-.8-.5-.8-1.3-.8h-.2c-.3 0-.6-.3-.6-.6 0-.2.1-.4.3-.6l1.3-1.3h-2c-.3 0-.6-.3-.6-.6s.3-.6.6-.6h3.2c.4 0 .7.2.7.6 0 .4-.2.5-.4.8l-1.3 1.2c.8.1 1.6.6 1.6 1.8z"/></svg><svg version="1.0" viewBox="0 0 24 24" xml:space="preserve" id="calendar" xmlns="http://www.w3.org/2000/svg"><path d="M19 23.5H5c-2.2 0-4-1.8-4-4v-13c0-2.2 1.8-4 4-4h1v-1c0-.6.4-1 1-1s1 .4 1 1v1h8v-1c0-.6.4-1 1-1s1 .4 1 1v1h1c2.2 0 4 1.8 4 4v13c0 2.2-1.8 4-4 4zM3 9.5v10c0 1.1.9 2 2 2h14c1.1 0 2-.9 2-2v-10H3zm0-2h18v-1c0-1.1-.9-2-2-2H5c-1.1 0-2 .9-2 2v1zm14.5 11h-1c-.6 0-1-.4-1-1s.4-1 1-1h1c.6 0 1 .4 1 1s-.4 1-1 1zm-5 0h-1c-.6 0-1-.4-1-1s.4-1 1-1h1c.6 0 1 .4 1 1s-.4 1-1 1zm-5 0h-1c-.6 0-1-.4-1-1s.4-1 1-1h1c.6 0 1 .4 1 1s-.4 1-1 1zm10-4h-1c-.6 0-1-.4-1-1s.4-1 1-1h1c.6 0 1 .4 1 1s-.4 1-1 1zm-5 0h-1c-.6 0-1-.4-1-1s.4-1 1-1h1c.6 0 1 .4 1 1s-.4 1-1 1zm-5 0h-1c-.6 0-1-.4-1-1s.4-1 1-1h1c.6 0 1 .4 1 1s-.4 1-1 1z"/></svg><svg version="1.0" viewBox="0 0 24 24" xml:space="preserve" id="call" xmlns="http://www.w3.org/2000/svg"><path d="M3.8 23.2c-1.3 0-2.4-1-2.6-2.4l-.4-3.5c-.1-1.2.5-2.3 1.5-2.9L4.8 13c1.2-.7 2.7-.5 3.6.5l.7.5c.2.2.4.3.6.2.6-.3 1.6-.9 2.6-1.9 1.1-1.1 1.6-2 1.9-2.6.1-.2 0-.5-.2-.6l-.6-.6c-1-1-1.2-2.4-.5-3.6l1.4-2.5c.6-1 1.8-1.6 2.9-1.5l3.5.4c1.5.2 2.6 1.4 2.4 2.9-.3 2.4-1.5 7.3-6.6 12.4-5.2 5.2-10 6.4-12.4 6.6h-.3zm2.5-8.7c-.2 0-.3 0-.5.1L3.3 16c-.3.2-.5.6-.5 1l.4 3.5c0 .4.3.7.7.7 2.2-.2 6.5-1.3 11.2-6 4.7-4.7 5.8-9.1 6-11.2 0-.4-.3-.6-.7-.7L17 2.8c-.4 0-.8.2-1 .5l-1.4 2.5c-.2.4-.2.9.2 1.2l.6.6c.8.8 1 1.9.6 2.9-.4.7-1 1.9-2.3 3.2-1.3 1.3-2.4 1.9-3.2 2.3-1 .5-2.1.2-2.9-.6l-.6-.6c-.2-.2-.4-.3-.7-.3z"/></svg><svg version="1.0" viewBox="0 0 24 24" xml:space="preserve" id="camera" xmlns="http://www.w3.org/2000/svg"><path d="M18 22H6c-2.8 0-5-2.2-5-5V9.3C1 6.9 2.9 5 5.3 5c.7 0 1.4-.4 1.8-1 .9-1.3 2.2-2 3.7-2h2.4c1.5 0 2.8.7 3.6 1.9.5.7 1.2 1.1 1.9 1.1C21.1 5 23 6.9 23 9.3V17c0 2.8-2.2 5-5 5zM10.8 4c-.8 0-1.5.4-2 1.1C8 6.3 6.7 7 5.3 7 4 7 3 8 3 9.3V17c0 1.7 1.3 3 3 3h12c1.7 0 3-1.3 3-3V9.3C21 8 20 7 18.7 7c-1.4 0-2.8-.7-3.5-1.9-.5-.7-1.2-1.1-2-1.1h-2.4z"/><path d="M12 18c-2.8 0-5-2.2-5-5s2.2-5 5-5 5 2.2 5 5-2.2 5-5 5zm0-8c-1.7 0-3 1.3-3 3s1.3 3 3 3 3-1.3 3-3-1.3-3-3-3z"/></svg><svg version="1.0" viewBox="0 0 24 24" xml:space="preserve" id="card-1" xmlns="http://www.w3.org/2000/svg"><path d="M20 21.5H4c-2.2 0-4-1.8-4-4v-11c0-2.2 1.8-4 4-4h16c2.2 0 4 1.8 4 4v11c0 2.2-1.8 4-4 4zm-18-11v7c0 1.1.9 2 2 2h16c1.1 0 2-.9 2-2v-7H2zm0-2h20v-2c0-1.1-.9-2-2-2H4c-1.1 0-2 .9-2 2v2z"/></svg><svg version="1.0" viewBox="0 0 24 24" xml:space="preserve" id="card-2" xmlns="http://www.w3.org/2000/svg"><path d="M20.2 21H3.8C1.7 21 0 19.3 0 17.2V6.8C0 4.7 1.7 3 3.8 3h16.5c2 0 3.7 1.7 3.7 3.8v10.4c0 2.1-1.7 3.8-3.8 3.8zM2 9.9v7.3c0 1 .8 1.8 1.8 1.8h16.5c1 0 1.8-.8 1.8-1.8V9.9H2zm0-2h20V6.8c0-1-.8-1.8-1.8-1.8H3.8C2.8 5 2 5.8 2 6.8v1.1zm7.2 6.8H5.8c-.6 0-1-.4-1-1s.4-1 1-1h3.4c.6 0 1 .4 1 1s-.4 1-1 1z"/></svg><svg version="1.0" viewBox="0 0 24 24" xml:space="preserve" id="card-cancelled" xmlns="http://www.w3.org/2000/svg"><path d="M15 20.5H3.8c-2.1 0-3.8-1.7-3.8-3.8V7c0-.6.4-1 1-1s1 .4 1 1v9.7c0 1 .8 1.8 1.8 1.8H15c.6 0 1 .4 1 1s-.4 1-1 1zm8-3c-.6 0-1-.4-1-1V9.4h-8c-.6 0-1-.4-1-1s.4-1 1-1h8V6.3c0-1-.8-1.8-1.8-1.8H8c-.6 0-1-.4-1-1s.4-1 1-1h12.2c2.1 0 3.8 1.7 3.8 3.8v10.2c0 .6-.4 1-1 1zM8 14.2H4.6c-.6 0-1-.4-1-1s.4-1 1-1H8c.6 0 1 .4 1 1s-.4 1-1 1zm15 8.3c-.2 0-.5-.1-.7-.2l-22-19c-.4-.4-.5-1-.1-1.4.4-.4 1-.5 1.4-.1l22 19c.4.4.5 1 .1 1.4-.1.2-.4.3-.7.3z"/></svg><svg version="1.0" viewBox="0 0 24 24" xml:space="preserve" id="caret" xmlns="http://www.w3.org/2000/svg"><path d="M12 16.5c-.3 0-.5-.1-.7-.3l-7-7c-.4-.4-.4-1 0-1.4s1-.4 1.4 0l6.3 6.3 6.3-6.3c.4-.4 1-.4 1.4 0s.4 1 0 1.4l-7 7c-.2.2-.4.3-.7.3z"/></svg><svg version="1.0" viewBox="0 0 24 24" xml:space="preserve" id="cart" xmlns="http://www.w3.org/2000/svg"><path d="M20.7 23c-1.1 0-2-.9-2-2s.9-2 2-2 2 .9 2 2-.9 2-2 2zm0-2zm-12 2c-1.1 0-2-.9-2-2s.9-2 2-2 2 .9 2 2-.9 2-2 2zm0-2zm7.2-2.5h-2.7c-3.4 0-6.3-2.4-6.9-5.7L5.2 6.7l-.6-2.9c-.1-.5-.5-.8-1-.8H1.2c-.6 0-1-.4-1-1s.4-1 1-1h2.4C5 1 6.2 2 6.5 3.3L7 5.5h14.3c.8 0 1.5.3 2 .9.5.6.7 1.4.5 2.1l-1 4.5c-.8 3.3-3.6 5.5-6.9 5.5zm-8.5-11 .9 4.9c.4 2.4 2.5 4.1 4.9 4.1h2.7c2.3 0 4.4-1.6 4.9-3.9l1-4.5c0-.2 0-.4-.1-.4-.1-.1-.2-.2-.4-.2H7.4z"/></svg><svg version="1.0" viewBox="0 0 24 24" xml:space="preserve" id="cash" xmlns="http://www.w3.org/2000/svg"><path d="M20.9 20H3.1C1.4 20 0 18.6 0 16.9V7.1C0 5.4 1.4 4 3.1 4H21c1.6 0 3 1.4 3 3.1v9.8c0 1.7-1.4 3.1-3.1 3.1zM3.1 6C2.5 6 2 6.5 2 7.1v9.8c0 .6.5 1.1 1.1 1.1H21c.6 0 1.1-.5 1.1-1.1V7.1C22 6.5 21.5 6 20.9 6H3.1zm8.9 9.8c-2.1 0-3.8-1.7-3.8-3.8 0-2.1 1.7-3.8 3.8-3.8 2.1 0 3.8 1.7 3.8 3.8 0 2.1-1.7 3.8-3.8 3.8zm0-5.6c-1 0-1.8.8-1.8 1.8s.8 1.8 1.8 1.8 1.8-.8 1.8-1.8-.8-1.8-1.8-1.8zm6.9 4.9c-.6 0-1-.4-1-1V9.2c0-.6.4-1 1-1s1 .4 1 1v4.9c0 .6-.5 1-1 1zm-13.8 0c-.6 0-1-.4-1-1V9.2c0-.6.4-1 1-1s1 .4 1 1v4.9c0 .6-.4 1-1 1z"/></svg><svg version="1.0" viewBox="0 0 24 24" xml:space="preserve" id="cash-withdrawl" xmlns="http://www.w3.org/2000/svg"><path d="M12 22.6c-.1 0-.3 0-.4-.1-.1 0-.2-.1-.3-.2l-3.4-3.4c-.4-.4-.4-1 0-1.4s1-.4 1.4 0l1.7 1.7v-4.5c0-.6.4-1 1-1s1 .4 1 1v4.5l1.5-1.5c.4-.4 1-.4 1.4 0s.4 1 0 1.4l-3.2 3.2c-.1.1-.2.2-.3.2-.1.1-.3.1-.4.1zm7.8-7.2h-2.4c-.6 0-1-.4-1-1s.4-1 1-1h2.4c.4 0 .8-.4.8-.8V4.2c0-.4-.4-.8-.8-.8H4.2c-.4 0-.8.4-.8.8v8.4c0 .4.4.8.8.8h2.4c.6 0 1 .4 1 1s-.4 1-1 1H4.2c-1.5 0-2.8-1.3-2.8-2.8V4.2c0-1.5 1.3-2.8 2.8-2.8h15.6c1.5 0 2.8 1.3 2.8 2.8v8.4c0 1.5-1.3 2.8-2.8 2.8zM12 11.8c-1.9 0-3.4-1.5-3.4-3.4S10.1 5 12 5s3.4 1.5 3.4 3.4-1.5 3.4-3.4 3.4zM12 7c-.8 0-1.4.6-1.4 1.4s.6 1.4 1.4 1.4c.8 0 1.4-.6 1.4-1.4S12.8 7 12 7zm6 4.2c-.6 0-1-.4-1-1V6c0-.6.4-1 1-1s1 .4 1 1v4.2c0 .6-.4 1-1 1zm-12 0c-.6 0-1-.4-1-1V6c0-.6.4-1 1-1s1 .4 1 1v4.2c0 .6-.4 1-1 1z"/></svg><svg version="1.0" viewBox="0 0 26 24" xml:space="preserve" id="cast" xmlns="http://www.w3.org/2000/svg"><path d="M20.3 22h-5c-.6 0-1-.4-1-1s.4-1 1-1h5c1.1 0 2-.9 2-2V6c0-1.1-.9-2-2-2h-16c-1.1 0-2 .9-2 2v1c0 .6-.4 1-1 1s-1-.4-1-1V6c0-2.2 1.8-4 4-4h16c2.2 0 4 1.8 4 4v12c0 2.2-1.8 4-4 4zM1.2 22c-.4 0-.8-.1-1.1-.4-.6-.6-.6-1.5 0-2.1.6-.6 1.5-.6 2.1 0 .6.6.6 1.5 0 2.1-.3.3-.6.4-1 .4zm0-2c-.1 0-.3 0-.4.1-.2.2-.2.5 0 .7.2.2.5.2.7.1.1-.1.1-.2.1-.4s-.1-.3-.1-.4c-.1-.1-.2-.1-.3-.1zm8.9 1.7c-.6 0-1-.4-1-1 0-1.1-.2-2.1-.6-3.1-.4-1-1-1.8-1.7-2.6-.7-.7-1.6-1.3-2.6-1.7-1-.4-2-.6-3.1-.6-.6 0-1-.4-1-1s.4-1 1-1c1.3 0 2.6.3 3.8.8 1.2.5 2.3 1.2 3.2 2.2.9.9 1.7 2 2.2 3.2.5 1.2.8 2.5.8 3.8 0 .5-.4 1-1 1zm-4.7-.3c-.6 0-1-.4-1-1 0-.4-.1-.8-.2-1.2-.2-.4-.4-.7-.7-1s-.7-.5-1-.7c-.4-.2-.8-.2-1.2-.2-.6 0-1-.4-1-1s.4-1 1-1c.7 0 1.4.1 2 .4s1.2.6 1.7 1.1c.5.5.9 1.1 1.1 1.7.3.6.4 1.3.4 2-.1.4-.6.9-1.1.9z"/></svg><svg version="1.0" viewBox="0 0 24 24" xml:space="preserve" id="chart-bar" xmlns="http://www.w3.org/2000/svg"><path d="M21 23c-.6 0-1-.4-1-1V2c0-.6.4-1 1-1s1 .4 1 1v20c0 .6-.4 1-1 1zm-6 0c-.6 0-1-.4-1-1V8c0-.6.4-1 1-1s1 .4 1 1v14c0 .6-.4 1-1 1zm-6 0c-.6 0-1-.4-1-1V12c0-.6.4-1 1-1s1 .4 1 1v10c0 .6-.4 1-1 1zm-6 0c-.6 0-1-.4-1-1v-8c0-.6.4-1 1-1s1 .4 1 1v8c0 .6-.4 1-1 1z"/></svg><svg version="1.0" viewBox="0 0 24 24" xml:space="preserve" id="chart-pie" xmlns="http://www.w3.org/2000/svg"><path d="M11.6 23.5c-1 0-2-.1-3-.4-1.7-.5-3.3-1.4-4.6-2.6-1.3-1.2-2.3-2.8-2.8-4.5-.6-1.7-.7-3.5-.4-5.3.3-1.8 1-3.4 2.1-4.9C4 4.4 5.4 3.2 7 2.5c.4-.3 1 0 1.3.5.2.5 0 1.1-.5 1.3-1.4.6-2.5 1.5-3.4 2.7s-1.5 2.5-1.7 4c-.2 1.4-.1 2.9.3 4.3S4.3 18 5.3 19c1.1 1 2.4 1.8 3.8 2.1 1.4.4 2.9.4 4.3.1 1.4-.3 2.8-1 3.9-1.9s2-2.2 2.5-3.5c.2-.5.8-.8 1.3-.6.5.2.8.8.6 1.3-.7 1.7-1.7 3.1-3.1 4.3-1.4 1.2-3 2-4.8 2.3-.7.3-1.5.4-2.2.4zm9.4-11h-7c-1.4 0-2.5-1.1-2.5-2.5V3c0-.7.3-1.4.8-1.9.5-.4 1.2-.6 1.8-.5.9.1 1.7.4 2.6.7 1.3.6 2.5 1.4 3.6 2.4 1 1 1.8 2.2 2.4 3.6.3.8.6 1.7.7 2.6.1.6-.1 1.3-.5 1.8-.5.4-1.1.8-1.9.8zm-7.1-10s-.1 0-.2.1-.1.2-.1.3v7c0 .3.2.5.5.5h7c.1 0 .3-.1.3-.1.1-.1.1-.2.1-.2-.1-.7-.3-1.4-.6-2.1-.5-1.1-1.1-2.1-2-2.9-.8-.8-1.8-1.5-2.9-2l-2.1-.6c0 .1 0 0 0 0z"/></svg><svg version="1.0" viewBox="0 0 24 24" xml:space="preserve" id="check" xmlns="http://www.w3.org/2000/svg"><path d="m9.2 18.9-6.4-6.4c-.4-.4-.4-1 0-1.4s1-.4 1.4 0l4.9 5L19.8 5.4c.4-.4 1-.4 1.4 0s.4 1 0 1.4l-12 12.1z"/></svg><svg version="1.0" viewBox="0 0 24 24" xml:space="preserve" id="chip" xmlns="http://www.w3.org/2000/svg"><path d="M15 24c-.6 0-1-.4-1-1v-2h-4v2c0 .6-.4 1-1 1s-1-.4-1-1v-2H7c-2.2 0-4-1.8-4-4v-1H1c-.6 0-1-.4-1-1s.4-1 1-1h2v-4H1c-.6 0-1-.4-1-1s.4-1 1-1h2V7c0-2.2 1.8-4 4-4h1V1c0-.6.4-1 1-1s1 .4 1 1v2h4V1c0-.6.4-1 1-1s1 .4 1 1v2h1c2.2 0 4 1.8 4 4v1h2c.6 0 1 .4 1 1s-.4 1-1 1h-2v4h2c.6 0 1 .4 1 1s-.4 1-1 1h-2v1c0 2.2-1.8 4-4 4h-1v2c0 .6-.4 1-1 1zM5 15v2c0 1.1.9 2 2 2h10c1.1 0 2-.9 2-2V7c0-1.1-.9-2-2-2H7c-1.1 0-2 .9-2 2v8zm9.5 1h-5c-.8 0-1.5-.7-1.5-1.5v-5C8 8.7 8.7 8 9.5 8h5c.8 0 1.5.7 1.5 1.5v5c0 .8-.7 1.5-1.5 1.5zM10 14h4v-4h-4v4z"/></svg><svg version="1.0" viewBox="0 0 24 24" xml:space="preserve" id="close" xmlns="http://www.w3.org/2000/svg"><path d="M18.4 19.4c-.3 0-.5-.1-.7-.3L12 13.4l-5.7 5.7c-.4.4-1 .4-1.4 0s-.4-1 0-1.4l5.7-5.7-5.7-5.7c-.4-.4-.4-1 0-1.4s1-.4 1.4 0l5.7 5.7 5.7-5.7c.4-.4 1-.4 1.4 0s.4 1 0 1.4L13.4 12l5.7 5.7c.4.4.4 1 0 1.4-.2.2-.5.3-.7.3z"/></svg><svg viewBox="0 0 24 24" id="compare" xmlns="http://www.w3.org/2000/svg"><path d="M12.968 8.326v8.75c0 .027.022.048.048.048h2.571c.505 0 .957.37 1.005.873a.968.968 0 0 1-.554.972.047.047 0 0 0 .02.09h2.232c.534 0 .967.434.967.969v.725a.242.242 0 0 1-.242.242H4.985a.242.242 0 0 1-.242-.242v-.725c0-.535.433-.968.967-.968h2.232c.052 0 .067-.069.02-.09a.968.968 0 0 1-.554-.973c.048-.503.5-.873 1.005-.873h2.57a.049.049 0 0 0 .05-.048v-8.75c0-.032.03-.054.061-.045.594.18 1.219.18 1.812 0a.047.047 0 0 1 .062.045ZM8.604 11.32c.142 0 .252.121.242.263a3.87 3.87 0 0 1-7.723 0 .244.244 0 0 1 .241-.263h7.24Zm14.031 0c.142 0 .252.121.242.263a3.87 3.87 0 0 1-7.723 0 .244.244 0 0 1 .241-.263h7.24ZM5.202 4.327a.965.965 0 0 1 .549 1.53l1.992 4.81a.12.12 0 0 1-.112.168h-.785a.12.12 0 0 1-.112-.075L4.985 6.536 3.236 10.76a.121.121 0 0 1-.111.075h-.786a.12.12 0 0 1-.112-.167l1.992-4.812c-.547-.714.09-1.723.983-1.529Zm14.031 0a.965.965 0 0 1 .548 1.53l1.992 4.81a.12.12 0 0 1-.111.168h-.786a.12.12 0 0 1-.111-.075l-1.75-4.224-1.748 4.224a.121.121 0 0 1-.112.075h-.785a.121.121 0 0 1-.113-.167l1.992-4.812c-.546-.714.09-1.723.984-1.529ZM12 3.094c1.036 0 1.901.724 2.121 1.693h3.462c.033 0 .055.031.045.062a1.42 1.42 0 0 0 0 .844.047.047 0 0 1-.045.062H14.12a2.177 2.177 0 0 1-4.242 0H6.417a.047.047 0 0 1-.045-.062 1.42 1.42 0 0 0 0-.844.047.047 0 0 1 .045-.062H9.88A2.177 2.177 0 0 1 12 3.094Zm0 1.21a.977.977 0 0 0-.968.967c0 .51.424.968.968.968a.977.977 0 0 0 .968-.968.978.978 0 0 0-.968-.968Z"/></svg><svg version="1.0" viewBox="0 0 24 24" xml:space="preserve" id="contactless-payments" xmlns="http://www.w3.org/2000/svg"><path fill-rule="evenodd" clip-rule="evenodd" d="M15.8 2.5c-.6-.6-1.5-.6-2.1 0-.6.6-.6 1.6 0 2.2 1.9 2 2.9 4.6 2.9 7.3s-1.1 5.4-2.9 7.3c-.6.6-.6 1.6 0 2.2.3.3.7.5 1.1.5.4 0 .8-.1 1-.4 2.4-2.5 3.8-6 3.8-9.6-.1-3.6-1.4-7-3.8-9.5zm-3.7 3.9c-.6-.6-1.5-.6-2.1 0-.6.6-.6 1.6 0 2.2.9.9 1.3 2.1 1.3 3.4s-.5 2.5-1.3 3.4c-.6.6-.6 1.6 0 2.2.3.3.7.5 1.1.5.4 0 .8-.1 1.1-.5 1.4-1.5 2.2-3.5 2.2-5.6-.1-2.1-.9-4.1-2.3-5.6zM4.5 12c0-1.3 1-2.4 2.2-2.4S9 10.7 9 12c0 1.3-1 2.4-2.2 2.4S4.5 13.3 4.5 12z"/></svg><svg version="1.0" viewBox="0 0 24 24" xml:space="preserve" id="copy" xmlns="http://www.w3.org/2000/svg"><path d="M19 24h-6c-2.2 0-4-1.8-4-4v-8c0-2.2 1.8-4 4-4h6c2.2 0 4 1.8 4 4v8c0 2.2-1.8 4-4 4zm-6-14c-1.1 0-2 .9-2 2v8c0 1.1.9 2 2 2h6c1.1 0 2-.9 2-2v-8c0-1.1-.9-2-2-2h-6zm-7.6 6H5c-2.2 0-4-1.8-4-4V4c0-2.2 1.8-4 4-4h6c2.2 0 4 1.8 4 4v.5h-2V4c0-1.1-.9-2-2-2H5c-1.1 0-2 .9-2 2v8c0 1.1.9 2 2 2h.4v2z"/></svg><svg version="1.0" viewBox="0 0 24 24" xml:space="preserve" id="currency-dollar" xmlns="http://www.w3.org/2000/svg"><path d="M12 22c-.6 0-1-.4-1-1v-2h-1c-.8 0-1.6-.3-2.3-.8-.6-.5-1.1-1.1-1.4-1.9-.2-.5.1-1.1.6-1.3.5-.2 1.1.1 1.3.6.1.4.4.7.7.9.4.3.7.5 1.1.5h4c.5 0 1-.2 1.4-.6s.6-.9.6-1.4-.2-1-.6-1.4-.9-.6-1.4-.6h-4c-1.1 0-2.1-.4-2.8-1.2C6.4 11.1 6 10.1 6 9s.4-2.1 1.2-2.8C7.9 5.4 8.9 5 10 5h1V3c0-.6.4-1 1-1s1 .4 1 1v2h1c.8 0 1.6.3 2.3.8.6.5 1.1 1.1 1.4 1.9.2.5-.1 1.1-.6 1.3-.5.2-1.1-.1-1.3-.6-.1-.4-.4-.7-.7-.9-.4-.3-.7-.5-1.1-.5H9.9c-.4 0-.9.2-1.3.6C8.2 8 8 8.5 8 9s.2 1 .6 1.4c.4.4.9.6 1.4.6h4c1.1 0 2.1.4 2.8 1.2S18 13.9 18 15s-.4 2.1-1.2 2.8S15.1 19 14 19h-1v2c0 .6-.4 1-1 1z"/></svg><svg version="1.0" viewBox="0 0 24 24" xml:space="preserve" id="currency-dollar-circle" xmlns="http://www.w3.org/2000/svg"><path d="M14.3 9.6c.2.5.8.8 1.3.6.5-.2.8-.8.6-1.3l-1.9.7zm-.9-1.7v-1 1zm-2.8 4.2v1-1zm2.8 4.2v1-1zm-2.8 0v1-1zm-.9-1.7c-.2-.5-.7-.8-1.3-.6s-.8.8-.6 1.3l1.9-.7zM13 5.8c0-.6-.4-1-1-1s-1 .4-1 1h2zm-2 2.1c0 .6.4 1 1 1s1-.4 1-1h-2zm2 8.4c0-.6-.4-1-1-1s-1 .4-1 1h2zm-2 2.1c0 .6.4 1 1 1s1-.4 1-1h-2zM16.2 9c-.2-.6-.6-1.1-1.1-1.5l-1.2 1.6c.2.1.3.3.4.5l1.9-.6zm-1.1-1.5c-.5-.4-1.1-.6-1.7-.6l-.1 2c.2 0 .4.1.6.2l1.2-1.6zm-1.7-.6h-2.8v2h2.8v-2zm-2.8 0c-.8 0-1.6.3-2.1.9l1.4 1.4c.2-.2.5-.3.7-.3v-2zm-2.1.9c-.6.6-.9 1.4-.9 2.2h2c0-.3.1-.6.3-.8L8.5 7.8zM7.6 10c0 .8.3 1.6.9 2.2l1.4-1.4c-.2-.2-.3-.5-.3-.8h-2zm.9 2.2c.6.6 1.4.9 2.2.9v-2c-.3 0-.5-.1-.7-.3l-1.5 1.4zm2.1.9h2.8v-2h-2.8v2zm2.8 0c.3 0 .5.1.7.3l1.4-1.4c-.6-.6-1.4-.9-2.2-.9v2zm.7.3c.2.2.3.5.3.8h2c0-.8-.3-1.6-.9-2.2l-1.4 1.4zm.3.8c0 .3-.1.6-.3.8l1.4 1.4c.6-.6.9-1.4.9-2.2h-2zm-.3.8c-.2.2-.5.3-.7.3v2c.8 0 1.6-.3 2.2-.9L14.1 15zm-.7.3h-2.8v2h2.8v-2zm-2.7 0c-.2 0-.4-.1-.6-.2l-1.2 1.6c.5.4 1.1.6 1.7.6l.1-2zm-.6-.2c-.2-.1-.3-.3-.4-.5l-1.9.7c.2.6.6 1.1 1.1 1.5l1.2-1.7zm.9-9.3v2.1h2V5.8h-2zm0 10.5v2.1h2v-2.1h-2zM22 12c0 5.5-4.5 10-10 10v2c6.6 0 12-5.4 12-12h-2zM12 22C6.5 22 2 17.5 2 12H0c0 6.6 5.4 12 12 12v-2zM2 12C2 6.5 6.5 2 12 2V0C5.4 0 0 5.4 0 12h2zM12 2c5.5 0 10 4.5 10 10h2c0-6.6-5.4-12-12-12v2z"/></svg><svg version="1.0" viewBox="0 0 24 24" xml:space="preserve" id="currency-pount-circle" xmlns="http://www.w3.org/2000/svg"><path d="M12 24C5.4 24 0 18.6 0 12S5.4 0 12 0s12 5.4 12 12-5.4 12-12 12zm0-22C6.5 2 2 6.5 2 12s4.5 10 10 10 10-4.5 10-10S17.5 2 12 2zm2.1 16.2c-.9 0-1.7-.2-2.5-.5-.4-.1-1-.2-1.6-.2-.4 0-.7.1-1.1.3-.2.1-.5.3-.7.3-.5.2-1-.1-1.2-.5-.2-.5 0-1 .4-1.3.2-.2.4-.3.6-.3l.2-.2c.2-.2.3-.4.3-.7v-1.8h-.6c-.6 0-1-.4-1-1s.4-1 1-1h.7V8.9c0-.9.3-1.9.9-2.6.6-.7 1.4-1.3 2.3-1.5.9-.2 1.9-.2 2.7.2.9.4 1.6 1 2.1 1.8.3.5.1 1.1-.4 1.4-.5.3-1.1.1-1.4-.4-.2-.4-.6-.8-1.1-1-.5-.2-1-.2-1.4-.1-.5.1-.9.4-1.2.8-.3.5-.5 1-.5 1.5v2.3h3c.6 0 1 .4 1 1s-.4 1-1 1h-3v2.3c.6 0 1.2.1 1.8.3 1.2.5 2.3.5 3.3 0 .5-.2 1.1 0 1.3.5s0 1.1-.5 1.3c-.7.3-1.6.5-2.4.5z"/></svg><svg version="1.0" viewBox="0 0 24 24" xml:space="preserve" id="cut" xmlns="http://www.w3.org/2000/svg"><path d="M21 22c-.3 0-.5-.1-.7-.3l-8.4-8.3-2.5 2.5c.4.6.6 1.3.6 2.1 0 2.2-1.8 4-4 4s-4-1.8-4-4 1.8-4 4-4c.7 0 1.3.2 1.9.5l2.5-2.5-2.5-2.5c-.5.3-1.2.5-1.9.5-2.2 0-4-1.8-4-4s1.8-4 4-4 4 1.8 4 4c0 .8-.2 1.5-.6 2.1l12.3 12.2c.4.4.4 1 0 1.4-.2.2-.4.3-.7.3zM6 16c-1.1 0-2 .9-2 2s.9 2 2 2 2-.9 2-2-.9-2-2-2zM6 4c-1.1 0-2 .9-2 2s.9 2 2 2 2-.9 2-2-.9-2-2-2zm8.8 6c-.3 0-.5-.1-.7-.3-.4-.4-.4-1 0-1.4l6.1-6c.4-.4 1-.4 1.4 0 .4.4.4 1 0 1.4l-6.1 6c-.1.2-.4.3-.7.3z"/></svg><svg version="1.0" viewBox="0 0 24 24" xml:space="preserve" id="data-sharing" xmlns="http://www.w3.org/2000/svg"><path d="M17.4 23.8c-.3 0-.5-.1-.7-.3l-2.4-2.4c-.2-.2-.3-.4-.3-.7s.1-.5.3-.7l2.4-2.4c.4-.4 1-.4 1.4 0s.4 1 0 1.4l-.7.7H19c1.2 0 2.2-1 2.2-2.2v-1.6c0-.6.4-1 1-1s1 .4 1 1v1.6c0 2.3-1.9 4.2-4.2 4.2h-1.6l.7.7c.4.4.4 1 0 1.4-.2.2-.4.3-.7.3zM7.2 22.6c-3.5 0-6.4-2.9-6.4-6.4 0-3.5 2.9-6.4 6.4-6.4 3.5 0 6.4 2.9 6.4 6.4 0 3.5-2.9 6.4-6.4 6.4zm0-10.8c-2.4 0-4.4 2-4.4 4.4 0 2.4 2 4.4 4.4 4.4 2.4 0 4.4-2 4.4-4.4 0-2.4-2-4.4-4.4-4.4zm8.9 3.6c-.5 0-.9-.4-1-.9-.1-.5.3-1 .9-1.1 2.2-.3 3.9-2.1 3.9-4.4 0-2.4-2-4.4-4.4-4.4-2 0-3.8 1.4-4.3 3.4-.1.5-.7.9-1.2.8-.6-.1-.9-.7-.8-1.2.7-2.9 3.2-5 6.2-5 3.5 0 6.4 2.9 6.4 6.4 0 3.2-2.4 6-5.6 6.4h-.1zm-14.3-6c-.6 0-1-.4-1-1V6.8C.8 4.5 2.7 2.6 5 2.6h1.6l-.7-.7c-.4-.4-.4-1 0-1.4.4-.4 1-.4 1.4 0l2.4 2.4c.4.4.4 1 0 1.4L7.3 6.7c-.4.4-1 .4-1.4 0s-.4-1 0-1.4l.7-.7H5c-1.2 0-2.2 1-2.2 2.2v1.6c0 .6-.4 1-1 1z"/></svg><svg version="1.0" viewBox="0 0 24 24" xml:space="preserve" id="delete" xmlns="http://www.w3.org/2000/svg"><path d="M15.3 24H8.7c-3.2 0-5.8-2.5-6-5.7L2 6H1c-.6 0-1-.4-1-1s.4-1 1-1h5c0-2.2 1.8-4 4-4h4c2.2 0 4 1.8 4 4h5c.6 0 1 .4 1 1s-.4 1-1 1h-1l-.6 12.3c-.2 3.2-2.9 5.7-6.1 5.7zM4.1 6l.6 12.2c.1 2.1 1.9 3.8 4 3.8h6.7c2.1 0 3.9-1.7 4-3.8L19.9 6H4.1zM8 4h8c0-1.1-.9-2-2-2h-4c-1.1 0-2 .9-2 2zm7 13c-.6 0-1-.4-1-1v-5c0-.6.4-1 1-1s1 .4 1 1v5c0 .6-.4 1-1 1zm-6 0c-.6 0-1-.4-1-1v-5c0-.6.4-1 1-1s1 .4 1 1v5c0 .6-.4 1-1 1z"/></svg><svg version="1.0" viewBox="0 0 24 24" xml:space="preserve" id="device-laptop" xmlns="http://www.w3.org/2000/svg"><path d="M20.4 20.8H3.6c-1.2 0-2.2-1-2.2-2.2v-1.8c0-.9.5-1.6 1.2-2V6.2c0-1.7 1.4-3 3.1-3h12.6c1.7 0 3.1 1.4 3.1 3v8.6c.7.4 1.2 1.1 1.2 2v1.8c0 1.2-1 2.2-2.2 2.2zM3.6 16.6c-.1 0-.2.1-.2.2v1.8c0 .1.1.2.2.2h16.8c.1 0 .2-.1.2-.2v-1.8c0-.1-.1-.2-.2-.2v-1 1h-3.9l-1.5 1c-.2.1-.4.2-.6.2H9.9c-.2 0-.3 0-.5-.1l-1.9-1.1H3.6zm6.6-.8h3.9l1.5-1c.2-.1.4-.2.6-.2h3.2V6.2c0-.6-.5-1-1.1-1H5.7c-.6 0-1.1.5-1.1 1v8.4h3.2c.2 0 .3 0 .5.1l1.9 1.1z"/></svg><svg version="1.0" viewBox="0 0 24 24" xml:space="preserve" id="device-mobile" xmlns="http://www.w3.org/2000/svg"><path d="M16.8 22.6H7.2c-1.9 0-3.4-1.5-3.4-3.4V4.8c0-1.9 1.5-3.4 3.4-3.4h9.6c1.9 0 3.4 1.5 3.4 3.4v14.4c0 1.9-1.5 3.4-3.4 3.4zM7.2 3.4c-.8 0-1.4.6-1.4 1.4v14.4c0 .8.6 1.4 1.4 1.4h9.6c.8 0 1.4-.6 1.4-1.4V4.8c0-.8-.6-1.4-1.4-1.4h-.2c.1.3 0 .5-.1.8l-1.6 2.4c-.3.2-.6.4-.9.4h-4c-.3 0-.6-.2-.8-.4L7.6 4.2c-.2-.3-.2-.5-.2-.8h-.2zM10.5 5h2.9l1.1-1.6h-5l1 1.6z"/></svg><svg version="1.0" viewBox="0 0 24 24" xml:space="preserve" id="device-mobile-disabled" xmlns="http://www.w3.org/2000/svg"><path d="M17 22.6H7.5c-1.9 0-3.4-1.5-3.4-3.4v-8.7c0-.6.4-1 1-1s1 .4 1 1v8.7c0 .8.6 1.4 1.4 1.4H17c.6 0 1 .4 1 1s-.4 1-1 1zm2.5-7.1c-.6 0-1-.4-1-1V4.8c0-.8-.6-1.4-1.4-1.4h-.2c.1.3 0 .5-.1.8l-1.6 2.4c-.3.2-.6.4-1 .4h-4c-.3 0-.6-.2-.8-.4L7.8 4.2c-.1-.2-.2-.5-.1-.7H6.3c-.5 0-1-.4-1-1s.4-1 1-1L17 1.4c1.9 0 3.4 1.5 3.4 3.4v9.7c.1.6-.4 1-.9 1zM10.8 5h2.9l1.1-1.6h-5l1 1.6zm10.4 17c-.2 0-.5-.1-.7-.3L2.1 4.7c-.4-.3-.5-1-.1-1.4.4-.4 1-.4 1.4-.1l18.5 17c.4.4.4 1 .1 1.4-.2.3-.5.4-.8.4z"/></svg><svg version="1.0" viewBox="0 0 24 24" xml:space="preserve" id="disabled" xmlns="http://www.w3.org/2000/svg"><path d="M12 24C5.4 24 0 18.6 0 12S5.4 0 12 0s12 5.4 12 12-5.4 12-12 12zm-6.1-4.1C7.6 21.2 9.7 22 12 22c5.5 0 10-4.5 10-10 0-2.3-.8-4.4-2.1-6.1l-14 14zM12 2C6.5 2 2 6.5 2 12c0 2.5.9 4.8 2.5 6.6L18.6 4.5C16.8 2.9 14.5 2 12 2z"/></svg><svg version="1.0" viewBox="0 0 24 25" xml:space="preserve" id="edit" xmlns="http://www.w3.org/2000/svg"><path d="m.4 23.6 1-8L16.1.8l.2-.1C16.4.7 19.4-.6 22 2s1.3 5.6 1.2 5.7l-.1.2L8.4 22.7l-8 .9zm2.8-7.1-.6 4.8 4.8-.6L18.1 10l-4.2-4.2L3.2 16.5zM15.4 4.4l4.2 4.2 1.9-1.9c.2-.5.5-2-.9-3.4s-2.9-1-3.4-.9l-1.8 2z"/></svg><svg version="1.0" viewBox="0 0 24 24" xml:space="preserve" id="email" xmlns="http://www.w3.org/2000/svg"><path d="M17 8c0-.6-.4-1-1-1s-1 .4-1 1h2zm-2 5c0 .6.4 1 1 1s1-.4 1-1h-2zm3.1 8.3c.5-.3.6-.9.3-1.4-.3-.5-.9-.6-1.4-.3l1.1 1.7zM15 8v5h2V8h-2zm0 4c0 1.7-1.3 3-3 3v2c2.8 0 5-2.2 5-5h-2zm-3 3c-1.7 0-3-1.3-3-3H7c0 2.8 2.2 5 5 5v-2zm-3-3c0-1.7 1.3-3 3-3V7c-2.8 0-5 2.2-5 5h2zm3-3c1.7 0 3 1.3 3 3h2c0-2.8-2.2-5-5-5v2zm9 3c0 1.1-.9 2-2 2v2c2.2 0 4-1.8 4-4h-2zm-2 2c-1.1 0-2-.9-2-2h-2c0 2.2 1.8 4 4 4v-2zm4-2c0-1.7-.7-4.4-2.4-6.7C18.9 2.9 16.1 1 12 1v2c3.4 0 5.6 1.6 7 3.5 1.4 2 2 4.2 2 5.5h2zM12 1C8 1 5.2 2.5 3.4 4.7 1.7 6.8 1 9.6 1 12h2c0-2.1.6-4.3 2-6.1C6.3 4.3 8.5 3 12 3V1zM1 12c0 2.5.8 5.2 2.6 7.3C5.4 21.5 8.2 23 12 23v-2c-3.2 0-5.4-1.2-6.9-3C3.7 16.3 3 14 3 12H1zm11 11c.8 0 1.9-.1 3-.4 1.1-.3 2.2-.7 3.1-1.3L17 19.6c-.6.4-1.5.8-2.4 1-1 .3-1.9.4-2.6.4v2z"/></svg><svg version="1.0" viewBox="0 0 24 24" xml:space="preserve" id="emoji" xmlns="http://www.w3.org/2000/svg"><path d="M12 24C5.4 24 0 18.6 0 12S5.4 0 12 0s12 5.4 12 12-5.4 12-12 12zm0-22C6.5 2 2 6.5 2 12s4.5 10 10 10 10-4.5 10-10S17.5 2 12 2z"/><path d="M12 18.5c-.5 0-1-.1-1.4-.2-.5-.1-.9-.3-1.3-.6s-.7-.6-.9-1c-.3-.5-.3-1 0-1.5s.9-.8 1.5-.8h4.4c.6 0 1.2.3 1.5.8.3.5.2 1 0 1.5-.2.4-.5.7-.9 1-.4.2-.8.4-1.3.6-.6.1-1.1.2-1.6.2zM8 12c-1.1 0-2-.9-2-2s.9-2 2-2 2 .9 2 2-.9 2-2 2zm0-2zm8 2c-1.1 0-2-.9-2-2s.9-2 2-2 2 .9 2 2-.9 2-2 2zm0-2z"/></svg><svg version="1.0" viewBox="0 0 24 24" xml:space="preserve" id="error" xmlns="http://www.w3.org/2000/svg"><path d="M12 24C5.4 24 0 18.6 0 12S5.4 0 12 0s12 5.4 12 12-5.4 12-12 12zm0-22C6.5 2 2 6.5 2 12s4.5 10 10 10 10-4.5 10-10S17.5 2 12 2z"/><path d="M16 17c-.3 0-.5-.1-.7-.3L12 13.4l-3.3 3.3c-.4.4-1 .4-1.4 0s-.4-1 0-1.4l3.3-3.3-3.3-3.3c-.4-.4-.4-1 0-1.4s1-.4 1.4 0l3.3 3.3 3.3-3.3c.4-.4 1-.4 1.4 0s.4 1 0 1.4L13.4 12l3.3 3.3c.4.4.4 1 0 1.4-.2.2-.4.3-.7.3z"/></svg><svg version="1.0" viewBox="0 0 24 24" xml:space="preserve" id="exit" xmlns="http://www.w3.org/2000/svg"><path d="M18.9 21.4h-7.4c-.8 0-1.6-.3-2.2-.9-.6-.6-.9-1.4-.9-2.2v-2.1c0-.6.4-1 1-1s1 .4 1 1v2.1c0 .3.1.6.3.8.2.2.5.3.8.3h7.4c.3 0 .6-.1.8-.3.2-.2.3-.5.3-.8V5.7c0-.3-.1-.6-.3-.8-.2-.2-.5-.3-.8-.3h-7.4c-.3 0-.6.1-.8.3-.2.2-.3.5-.3.8v2.1c0 .6-.4 1-1 1s-1-.4-1-1V5.7c0-.8.3-1.6.9-2.2.6-.6 1.4-.9 2.2-.9h7.4c.8 0 1.6.3 2.2.9.6.6.9 1.4.9 2.2v12.6c0 .8-.3 1.6-.9 2.2-.6.6-1.4.9-2.2.9zM6.2 16.2c-.3 0-.5-.1-.7-.3l-3.2-3.2c-.1-.1-.2-.2-.2-.3-.1-.1-.1-.3-.1-.4 0-.1 0-.2.1-.4v-.1c0-.1.1-.2.2-.2l3.2-3.1c.4-.4 1-.4 1.4 0 .4.4.4 1 0 1.4L5.4 11h10.3c.6 0 1 .4 1 1s-.4 1-1 1H5.4l1.5 1.4c.4.4.4 1 0 1.4-.2.3-.5.4-.7.4z"/></svg><svg version="1.0" viewBox="0 0 24 24" xml:space="preserve" id="face-id" xmlns="http://www.w3.org/2000/svg"><path d="M19.5 22.6h-4.3c-.6 0-1-.4-1-1s.4-1 1-1h4.3c.6 0 1.1-.5 1.1-1.1v-4.3c0-.6.4-1 1-1s1 .4 1 1v4.3c0 1.7-1.4 3.1-3.1 3.1zm-10.7 0H4.5c-1.7 0-3.1-1.4-3.1-3.1v-4.3c0-.6.4-1 1-1s1 .4 1 1v4.3c0 .6.5 1.1 1.1 1.1h4.3c.6 0 1 .4 1 1s-.4 1-1 1zm2.8-5.2c-1.4 0-2.7-.3-3.6-1-.4-.3-.5-1-.2-1.4.3-.4 1-.5 1.4-.2 1 .7 3.6.8 5.3-.1.5-.3 1.1-.1 1.4.4.3.5.1 1.1-.4 1.4-1.1.6-2.5.9-3.9.9zm-.2-3.7c-.3 0-.5-.1-.7-.3-.4-.4-.4-1 0-1.4l.2-.2V8.7c0-.6.4-1 1-1s1 .4 1 1v3c0 .6-.2 1.1-.7 1.5l-.2.2c-.1.2-.3.3-.6.3zm4.8-3.5c-.6 0-1-.4-1-1V8c0-.6.4-1 1-1s1 .4 1 1v1.2c0 .5-.4 1-1 1zm-8.4 0c-.6 0-1-.4-1-1V8c0-.6.4-1 1-1s1 .4 1 1v1.2c0 .5-.4 1-1 1zm13.8-.4c-.6 0-1-.4-1-1V4.5c0-.6-.5-1.1-1.1-1.1h-4.3c-.6 0-1-.4-1-1s.4-1 1-1h4.3c1.7 0 3.1 1.4 3.1 3.1v4.3c0 .6-.4 1-1 1zm-19.2 0c-.6 0-1-.4-1-1V4.5c0-1.7 1.4-3.1 3.1-3.1h4.3c.6 0 1 .4 1 1s-.4 1-1 1H4.5c-.6 0-1.1.5-1.1 1.1v4.3c0 .6-.4 1-1 1z"/></svg><svg version="1.0" viewBox="0 0 24 24" xml:space="preserve" id="file" xmlns="http://www.w3.org/2000/svg"><path d="M17.4 22.6H6.6c-1.9 0-3.4-1.5-3.4-3.4V4.8c0-1.9 1.5-3.4 3.4-3.4h10.8c1.9 0 3.4 1.5 3.4 3.4v14.4c0 1.9-1.5 3.4-3.4 3.4zM6.6 3.4c-.8 0-1.4.6-1.4 1.4v14.4c0 .8.6 1.4 1.4 1.4h10.8c.8 0 1.4-.6 1.4-1.4V4.8c0-.8-.6-1.4-1.4-1.4H6.6zm5.4 12H8.4c-.6 0-1-.4-1-1s.4-1 1-1H12c.6 0 1 .4 1 1s-.4 1-1 1zm3.6-3.6H8.4c-.6 0-1-.4-1-1s.4-1 1-1h7.2c.6 0 1 .4 1 1s-.4 1-1 1zm0-3.6H8.4c-.6 0-1-.4-1-1s.4-1 1-1h7.2c.6 0 1 .4 1 1s-.4 1-1 1z"/></svg><svg version="1.0" viewBox="0 0 24 24" xml:space="preserve" id="file-1" xmlns="http://www.w3.org/2000/svg"><path d="M18 24H6c-2.2 0-4-1.8-4-4V4c0-2.2 1.8-4 4-4h3.9c2.7.2 5.2 1.4 7 3.5l2.8 3.3c1.3 1.5 2.1 3.5 2.3 5.5V20c0 2.2-1.8 4-4 4zM6 2c-1.1 0-2 .9-2 2v16c0 1.1.9 2 2 2h12c1.1 0 2-.9 2-2v-7.4c-.2-1.4-1.5-2.5-3-2.5h-2.1c-1.4 0-2.5-1.1-2.5-2.5V5c0-1.6-1.2-2.8-2.7-3H6zm8.3 1.8c.1.4.1.8.1 1.2v2.5c0 .3.2.5.5.5H17c.4 0 .8 0 1.1.1l-2.8-3.3c-.3-.3-.6-.7-1-1z"/></svg><svg version="1.0" viewBox="0 0 24 24" xml:space="preserve" id="file-folded" xmlns="http://www.w3.org/2000/svg"><path d="M17.4 22.6H6.6c-1.9 0-3.4-1.5-3.4-3.4V4.8c0-1.9 1.5-3.4 3.4-3.4h9.1c.6 0 1.2.3 1.6.7l1.4 1.4c.4.4 1.1 1 1.5 1.5.4.4.6.9.6 1.5v12.7c0 1.9-1.5 3.4-3.4 3.4zM6.6 3.4c-.8 0-1.4.6-1.4 1.4v14.4c0 .8.6 1.4 1.4 1.4h10.8c.8 0 1.4-.6 1.4-1.4v-11h-2.6C15 8.2 14 7.2 14 6V3.4H6.6zm9.4.2V6c0 .1.1.2.2.2h2.4l-1.3-1.3L16 3.6zm-.4 11.8H8.4c-.6 0-1-.4-1-1s.4-1 1-1h7.2c.6 0 1 .4 1 1s-.4 1-1 1zm0-3.6H8.4c-.6 0-1-.4-1-1s.4-1 1-1h7.2c.6 0 1 .4 1 1s-.4 1-1 1zm-4.8-3.6H8.4c-.6 0-1-.4-1-1s.4-1 1-1h2.4c.6 0 1 .4 1 1s-.4 1-1 1z"/></svg><svg version="1.0" viewBox="0 0 24 24" xml:space="preserve" id="file-tree" xmlns="http://www.w3.org/2000/svg"><path d="M9.1 20.2c.6 0 1-.4 1-1s-.4-1-1-1v2zM4.3 16h-1 1zm1-13.6c0-.6-.4-1-1-1s-1 .4-1 1h2zm3.8 5.9c.6 0 1-.4 1-1s-.4-1-1-1v2zm9.6 1.6v-1 1zm-4.8 0v1-1zm5.8-7.5h1c0-.3-.1-.5-.3-.7-.2-.2-.4-.3-.7-.3v1zm0 6.4h1-1zm-6.9 0h-1 1zm0-4.3-.7-.7c-.2.2-.3.5-.3.7h1zm2.4-2.1v-1c-.2 0-.5.1-.7.3l.7.7zm3.5 19.2v-1 1zm-4.8 0v1-1zm5.8-7.5h1c0-.3-.1-.5-.3-.7-.2-.2-.4-.3-.7-.3v1zm0 6.4h1-1zm-6.9 0h-1 1zm0-4.2-.7-.7c-.2.2-.3.5-.3.7h1zm2.4-2.2v-1c-.2 0-.5.1-.7.3l.7.7zm-6.1 4.1H7.5v2h1.6v-2zM5.3 16V7.3h-2V16h2zm0-8.7V2.4h-2v4.9h2zm3.8-1H4.3v2h4.8v-2zM7.5 18.2c-1.2 0-2.2-1-2.2-2.2h-2c0 2.3 1.9 4.2 4.2 4.2v-2zm11.2-9.3h-4.8v2h4.8v-2zm0-6.5v6.4h2V2.4h-2zm0 8.5c1.1 0 2.1-.9 2.1-2.1h-2s0 .1-.1.1v2zm-6.9-2.1c0 1.1.9 2.1 2.1 2.1v-2s-.1 0-.1-.1h-2zm2 0V4.5h-2v4.3h2zm1.4-5.4h4.5v-2h-4.5v2zm-.7-1.7-2.4 2.1 1.3 1.5 2.4-2.1-1.3-1.5zm4.2 18.9h-4.8v2h4.8v-2zm0-6.5v6.4h2v-6.4h-2zm0 8.5c1.1 0 2.1-.9 2.1-2.1h-2s0 .1-.1.1v2zm-6.9-2.1c0 1.1.9 2.1 2.1 2.1v-2s-.1 0-.1-.1h-2zm2 0v-4.3h-2v4.3h2zm1.4-5.4h4.5v-2h-4.5v2zm-.7-1.7-2.4 2.1 1.3 1.5 2.4-2.1-1.3-1.5z"/></svg><svg version="1.0" viewBox="0 0 24 24" xml:space="preserve" id="first" xmlns="http://www.w3.org/2000/svg"><path d="M19 20c-.3 0-.5-.1-.7-.3l-7-7c-.4-.4-.4-1 0-1.4l7-7c.4-.4 1-.4 1.4 0s.4 1 0 1.4L13.4 12l6.3 6.3c.4.4.4 1 0 1.4-.2.2-.5.3-.7.3z"/><path d="M12 20c-.3 0-.5-.1-.7-.3l-7-7c-.4-.4-.4-1 0-1.4l7-7c.4-.4 1-.4 1.4 0 .4.4.4 1 0 1.4L6.4 12l6.3 6.3c.4.4.4 1 0 1.4-.2.2-.5.3-.7.3z"/></svg><svg version="1.0" viewBox="0 0 24 24" xml:space="preserve" id="folder" xmlns="http://www.w3.org/2000/svg"><path d="M20 21.5H4c-2.2 0-4-1.8-4-4v-11c0-2.2 1.8-4 4-4h4.4c1 0 1.9.3 2.6 1L12.8 5c.4.3.8.5 1.3.5H20c2.2 0 4 1.8 4 4v8c0 2.2-1.8 4-4 4zM4 4.5c-1.1 0-2 .9-2 2v11c0 1.1.9 2 2 2h16c1.1 0 2-.9 2-2v-8c0-1.1-.9-2-2-2h-5.9c-1 0-1.9-.3-2.6-1L9.7 5c-.4-.3-.8-.5-1.3-.5H4z"/></svg><svg version="1.0" viewBox="0 0 24 24" xml:space="preserve" id="forward" xmlns="http://www.w3.org/2000/svg"><path fill-rule="evenodd" clip-rule="evenodd" d="M13.6 7.9c0-.4.4-.6.8-.4l6.1 4.1c.3.2.3.6 0 .8l-6.1 4.1c-.3.2-.8 0-.8-.4V7.9zm1.9-2.1c-1.7-1.1-3.9.1-3.9 2.1v2.2c-.1-.1-.2-.2-.3-.2L5.2 5.8c-1.6-1.1-3.9.1-3.9 2.1v8.2c0 2 2.2 3.2 3.9 2.1l6.1-4.1c.1-.1.2-.1.3-.2v2.2c0 2 2.2 3.2 3.9 2.1l6.1-4.1c1.5-1 1.5-3.2 0-4.1l-6.1-4.2zM3.3 7.9c0-.4.4-.6.8-.4l6.1 4.1c.3.2.3.6 0 .8l-6.1 4.1c-.3.2-.8 0-.8-.4V7.9z"/></svg><svg version="1.0" viewBox="0 0 24 24" xml:space="preserve" id="gift" xmlns="http://www.w3.org/2000/svg"><path d="M19.2 22.7H4.8c-.9 0-1.7-.8-1.7-1.7v-7.4c-.9 0-1.7-.8-1.7-1.7V8.4c0-.9.8-1.7 1.7-1.7h4c-.2-.1-.4-.3-.6-.5-1.1-1.1-1.1-2.9 0-4.1C7.6 1 9.4 1 10.6 2.1c.5.5.9 1.5 1.2 2.4.3-1 .7-1.9 1.2-2.4 1.1-1.1 2.9-1.1 4.1 0 .5.5.8 1.3.8 2 0 .8-.3 1.5-.8 2-.2.2-.4.3-.6.4H21c.9 0 1.7.8 1.7 1.7v3.5c0 .9-.8 1.7-1.7 1.7V21c-.1.9-.9 1.7-1.8 1.7zm-6-2h5.7v-7.1h-5.7v7.1zm-8.1 0h6v-7.1h-6v7.1zm14.8-9.1h.7V8.7h-7.4v2.9h6.7zm-15.8 0h7V8.7H3.4v2.9h.7zm4.4-8.3c-.2 0-.4.1-.6.3-.3.3-.3.9 0 1.2.2.2 1 .5 2.1.9-.3-1.1-.7-1.9-.9-2.1-.1-.2-.4-.3-.6-.3zm6.5 0c-.2 0-.5.1-.6.3-.2.2-.5 1-.8 2.1 1.1-.3 1.9-.7 2.1-.8.2-.2.3-.4.3-.6 0-.2-.1-.5-.3-.6-.3-.3-.5-.4-.7-.4z"/></svg><svg version="1.0" viewBox="0 0 24 24" xml:space="preserve" id="globe" xmlns="http://www.w3.org/2000/svg"><path d="M3.6 8.6c-.6 0-1 .4-1 1s.4 1 1 1v-2zm16.8 2c.6 0 1-.4 1-1s-.4-1-1-1v2zM3.7 14c-.6 0-1 .4-1 1s.4 1 1 1v-2zm16.8 2c.6 0 1-.4 1-1s-.4-1-1-1v2zm.1-4c0 4.7-3.9 8.6-8.6 8.6v2c5.9 0 10.6-4.7 10.6-10.6h-2zM12 20.6c-4.7 0-8.6-3.9-8.6-8.6h-2c0 5.9 4.7 10.6 10.6 10.6v-2zM3.4 12c0-4.7 3.9-8.6 8.6-8.6v-2C6.1 1.4 1.4 6.1 1.4 12h2zM12 3.4c4.7 0 8.6 3.9 8.6 8.6h2c0-5.9-4.7-10.6-10.6-10.6v2zm0 17.2c-.2 0-.6-.1-.9-.5-.4-.4-.8-.9-1.1-1.7-.7-1.6-1.1-3.8-1.1-6.4h-2c0 2.8.5 5.3 1.3 7.2.3.9.8 1.8 1.5 2.4.6.6 1.4 1 2.3 1v-2zM8.8 12c0-2.5.5-4.8 1.1-6.4.3-.8.7-1.4 1.1-1.7.4-.4.7-.5.9-.5v-2c-.9 0-1.7.4-2.3 1C9 3 8.5 3.9 8.1 4.8 7.3 6.7 6.8 9.2 6.8 12h2zM12 22.6c.9 0 1.7-.4 2.3-1 .6-.6 1.1-1.4 1.6-2.4.8-1.9 1.3-4.4 1.3-7.2h-2c0 2.5-.5 4.8-1.1 6.4-.3.8-.7 1.4-1.1 1.7-.4.4-.7.5-.9.5v2zM17.2 12c0-2.8-.5-5.3-1.3-7.2-.4-.9-.9-1.8-1.6-2.4-.6-.6-1.4-1-2.3-1v2c.2 0 .6.1.9.5.4.4.8.9 1.1 1.7.7 1.6 1.1 3.8 1.1 6.4h2.1zM3.6 10.6h16.8v-2H3.6v2zm.1 5.4h16.8v-2H3.7v2z"/></svg><svg version="1.0" viewBox="0 0 24 24" xml:space="preserve" id="heart" xmlns="http://www.w3.org/2000/svg"><path d="M12.1 22.7h-.3c-.2 0-.4-.1-.5-.2l-9.2-9.2c-2.7-2.7-2.7-7.2 0-10C4.8.6 9.3.6 12 3.3c1.3-1.3 3.1-2 4.9-2 1.9 0 3.7.7 5 2.1 1.3 1.3 2.1 3.1 2.1 5s-.7 3.7-2.1 5l-9.2 9.2c-.1 0-.4.1-.6.1zm-8.6-18c-2 2-2 5.2 0 7.1l8.5 8.5 8.5-8.5c1-1 1.5-2.2 1.5-3.6s-.5-2.6-1.5-3.6-2.2-1.5-3.6-1.5c-1.3 0-2.6.5-3.6 1.5l-.2.4c-.6.6-1.5.6-2.1 0l-.3-.3c-2-1.9-5.3-1.9-7.2 0z"/></svg><svg version="1.0" viewBox="0 0 24 24" xml:space="preserve" id="hide" xmlns="http://www.w3.org/2000/svg"><path d="M6.7 2.5c-.4-.4-1-.4-1.4 0-.4.4-.4 1 0 1.4l1.4-1.4zm14.6 17.4c.4.4 1 .4 1.4 0 .4-.4.4-1 0-1.4l-1.4 1.4zM1.7 14l.9-.5-.9.5zm0-2.5L.8 11l.9.5zm20.6 0-.8.5.8-.5zm-.7 1.7c-.1.5.2 1.1.7 1.2.5.1 1.1-.2 1.2-.7l-1.9-.5zm-6-8.8c-.5-.2-1.1.1-1.3.6-.2.5.1 1.1.6 1.3l.7-1.9zm5.1 13.5c.4-.4.4-1 0-1.4-.4-.4-1-.4-1.4 0l1.4 1.4zM8.5 6.5c.5-.2.8-.8.6-1.3-.2-.5-.8-.8-1.3-.6l.7 1.9zM5.3 3.9l16 16 1.4-1.4-16-16-1.4 1.4zM12 19.8c-3.8 0-7.3-2.4-9.5-6.2l-1.7 1c2.5 4.3 6.5 7.2 11.2 7.2v-2zM.8 11c-.6 1.1-.6 2.4 0 3.5l1.7-1c-.3-.5-.3-1 0-1.5L.8 11zm20.7 1c.2.4.3.8.1 1.2l1.9.5c.2-.9.1-1.9-.3-2.7l-1.7 1zM15 6.3c2.6.9 4.9 2.9 6.5 5.7l1.7-1c-1.8-3.1-4.4-5.6-7.6-6.6L15 6.3zm4.2 10.2c-2 2.1-4.5 3.3-7.2 3.3v2c3.3 0 6.3-1.5 8.7-3.9l-1.5-1.4zM2.5 12c1.5-2.6 3.6-4.6 6-5.6l-.7-1.8C4.9 5.8 2.5 8.1.8 11l1.7 1zm11.4.3c.1.4.1.9-.1 1.3l1.8.8c.3-.8.4-1.7.2-2.5l-1.9.4zm-.1 1.3c-.2.4-.5.7-.8 1l1 1.7c.8-.4 1.3-1.1 1.7-1.9l-1.9-.8zm-.8.9c-.4.2-.8.3-1.2.3l-.2 2c.9.1 1.7-.1 2.5-.5L13 14.5zm-1.2.3c-.4-.1-.8-.2-1.1-.5l-1.4 1.4c.6.6 1.4 1 2.3 1.1l.2-2zm-1.2-.6c-.3-.3-.5-.7-.6-1.1l-2 .3c.1.9.6 1.6 1.2 2.2l1.4-1.4zm-.6-1.1c-.1-.4 0-.9.2-1.3l-1.8-.9c-.4.8-.6 1.6-.4 2.5l2-.3zm.2-1.3c.2-.4.5-.7.9-.9l-.8-1.8c-.8.4-1.4 1-1.8 1.8l1.7.9zm1-.8c.4-.2.8-.2 1.3-.1l.4-2c-.8-.2-1.7-.1-2.5.3l.8 1.8z"/></svg><svg version="1.0" viewBox="0 0 24 24" xml:space="preserve" id="home" xmlns="http://www.w3.org/2000/svg"><path d="M19.5 24H16c-1.1 0-2-.9-2-2v-5.5h-4V22c0 1.1-.9 2-2 2H4.5C2.6 24 1 22.4 1 20.5V9.9c0-1.3.6-2.5 1.6-3.2L11.4.2c.4-.3.8-.3 1.2 0l8.8 6.5c1 .8 1.6 2 1.6 3.2v10.6c0 1.9-1.6 3.5-3.5 3.5zm-10-9.5h5c.8 0 1.5.7 1.5 1.5v6h3.5c.8 0 1.5-.7 1.5-1.5V9.9c0-.6-.3-1.2-.8-1.6l-8.2-6-8.2 6c-.5.3-.8.9-.8 1.6v10.6c0 .8.7 1.5 1.5 1.5H8v-6c0-.8.7-1.5 1.5-1.5z"/></svg><svg viewBox="0 0 24 24" id="image" xmlns="http://www.w3.org/2000/svg"><path d="m8.467 12.883-.647-.763.647.763Zm.053-.051-.713-.702v.001l.713.7ZM6.298 14.72l-.646-.763.646.763Zm-.119.125.821.571-.82-.57Zm11.514-1.886-.693.722.692-.722Zm-1.852-1.777-.692.722.692-.722Zm-.687-.005-.682-.73-.003.002.685.728ZM11.725 14.4l.683.73.002-.002-.685-.728Zm-.698-.015-.716.698.002.001.714-.7Zm-.009-.01-.716.698.716-.698Zm-.049-.047.655-.756-.655.756ZM9.3 12.88l.655-.756-.655.756Zm-.05-.048.718-.697h-.001l-.716.697Zm-.008-.009.716-.698-.001-.001-.715.7Zm-.712-.002-.71-.703-.002.002.712.701ZM16.32 6.6v-1a1 1 0 0 0-1 1h1Zm.344 0h1a1 1 0 0 0-1-1v1Zm0 .29v1a1 1 0 0 0 1-1h-1Zm-.343 0h-1a1 1 0 0 0 1 1v-1ZM1.4 6v12h2V6h-2ZM6 22.6h12v-2H6v2ZM22.6 18V6h-2v12h2ZM18 1.4H6v2h12v-2ZM22.6 6A4.6 4.6 0 0 0 18 1.4v2A2.6 2.6 0 0 1 20.6 6h2ZM18 22.6a4.6 4.6 0 0 0 4.6-4.6h-2a2.6 2.6 0 0 1-2.6 2.6v2ZM1.4 18A4.6 4.6 0 0 0 6 22.6v-2A2.6 2.6 0 0 1 3.4 18h-2Zm2-12A2.6 2.6 0 0 1 6 3.4v-2A4.6 4.6 0 0 0 1.4 6h2Zm5.713 7.645c.06-.05.108-.1.12-.112L7.806 12.13l-.008.009c-.002.002-.002.002-.001 0l.023-.02 1.293 1.525Zm-2.169 1.838 2.17-1.838L7.82 12.12l-2.168 1.837 1.292 1.526ZM7 15.416a.474.474 0 0 1-.048.06l-.008.007-1.292-1.526a1.66 1.66 0 0 0-.294.317L7 15.417Zm0 0-1.642-1.142A2 2 0 0 0 5 15.417h2ZM7 17.5v-2.084H5V17.5h2Zm-.5-.5a.5.5 0 0 1 .5.5H5A1.5 1.5 0 0 0 6.5 19v-2Zm11 0h-11v2h11v-2Zm-.5.5a.5.5 0 0 1 .5-.5v2a1.5 1.5 0 0 0 1.5-1.5h-2Zm0-3.82v3.82h2v-3.82h-2Zm0 0h2a2 2 0 0 0-.615-1.442L17 13.68Zm-1.851-1.776L17 13.68l1.385-1.443-1.851-1.777-1.385 1.443Zm.687.004a.5.5 0 0 1-.687-.004l1.385-1.443a1.5 1.5 0 0 0-2.062-.015l1.364 1.462Zm-3.426 3.22 3.429-3.222-1.37-1.457-3.429 3.222 1.37 1.458Zm-2.097-.044a1.5 1.5 0 0 0 2.095.047l-1.365-1.462a.5.5 0 0 1 .699.016l-1.43 1.4Zm-.01-.01.008.009 1.432-1.396-.009-.01-1.432 1.396Zm.011.01a.494.494 0 0 1-.021-.02c-.001-.001-.001-.001 0 0l.009.009 1.433-1.395a1.436 1.436 0 0 0-.111-.106l-1.31 1.512Zm-1.67-1.447 1.67 1.447 1.31-1.512-1.67-1.447-1.31 1.512Zm-.111-.107c.01.012.056.06.111.107l1.31-1.512.022.02h-.001l-.008-.009-1.434 1.394Zm-.008-.008.009.01 1.432-1.397-.009-.009-1.432 1.396Zm.715.003a.5.5 0 0 1-.714-.002l1.43-1.398a1.5 1.5 0 0 0-2.138-.006l1.422 1.406Zm-.008.009.01-.01-1.425-1.403-.01.01 1.425 1.403ZM16.32 7.6h.343v-2h-.343v2Zm-.657-1v.29h2V6.6h-2Zm1-.71h-.343v2h.343v-2Zm.657 1V6.6h-2v.29h2Z"/></svg><svg version="1.0" viewBox="0 0 24 24" xml:space="preserve" id="info" xmlns="http://www.w3.org/2000/svg"><path d="M12 24C5.4 24 0 18.6 0 12S5.4 0 12 0s12 5.4 12 12-5.4 12-12 12zm0-22C6.5 2 2 6.5 2 12s4.5 10 10 10 10-4.5 10-10S17.5 2 12 2zm0 15.5c-.6 0-1-.4-1-1V16c0-.6.4-1 1-1s1 .4 1 1v.5c0 .6-.4 1-1 1zm0-4.5c-.6 0-1-.4-1-1V7c0-.6.4-1 1-1s1 .4 1 1v5c0 .6-.4 1-1 1z"/></svg><svg version="1.0" viewBox="0 0 24 24" xml:space="preserve" id="investment" xmlns="http://www.w3.org/2000/svg"><path d="M12 21.2h-.2c-.1 0-.2 0-.2-.1 0 0-.1 0-.1-.1-.1 0-.1-.1-.2-.1l-.1-.1L1.7 9.9l-.2-.2v-.1c0-.1 0-.2-.1-.2v-.1c0-.1 0-.2.1-.4v-.1c0-.1.1-.1.1-.2l4.1-5.4c.2-.2.5-.4.8-.4h11c.3 0 .6.1.8.4l4 5.4c0 .1.1.1.1.2v.1c0 .1.1.2 0 .3v.1c0 .1 0 .2-.1.2 0 0 0 .1-.1.1 0 .1-.1.1-.1.2l-9.6 10.9-.1.1s-.1.1-.2.1c0 0-.1 0-.1.1-.1 0-.2.1-.2.1.2.1.2.1.1.1zm-2.1-11 2.1 6.7 2.2-6.7H9.9zm-5.3 0 5 5.7-1.8-5.7H4.6zm11.7 0-1.8 5.6 4.9-5.6h-3.1zm.1-2h3.2l-2.5-3.4h-2l1.3 3.4zm-6.5 0h4.4L13 4.8h-1.8L9.9 8.2zm-5.5 0h3.3L9 4.8H7L4.4 8.2z"/></svg><svg version="1.0" viewBox="0 0 24 24" xml:space="preserve" id="last" xmlns="http://www.w3.org/2000/svg"><path d="M5 20c-.3 0-.5-.1-.7-.3-.4-.4-.4-1 0-1.4l6.3-6.3-6.3-6.3c-.4-.4-.4-1 0-1.4s1-.4 1.4 0l7 7c.4.4.4 1 0 1.4l-7 7c-.2.2-.4.3-.7.3z"/><path d="M12 20c-.3 0-.5-.1-.7-.3-.4-.4-.4-1 0-1.4l6.3-6.3-6.3-6.3c-.4-.4-.4-1 0-1.4s1-.4 1.4 0l7 7c.4.4.4 1 0 1.4l-7 7c-.2.2-.4.3-.7.3z"/></svg><svg version="1.0" viewBox="0 0 24 24" xml:space="preserve" id="layout" xmlns="http://www.w3.org/2000/svg"><path d="M19 24H5c-2.2 0-4-1.8-4-4V4c0-2.2 1.8-4 4-4h14c2.2 0 4 1.8 4 4v16c0 2.2-1.8 4-4 4zm-8.5-2H19c1.1 0 2-.9 2-2V9H10.5v13zM3 9v11c0 1.1.9 2 2 2h3.5V9H3zm6.5-2H21V4c0-1.1-.9-2-2-2H5c-1.1 0-2 .9-2 2v3h6.5z"/></svg><svg version="1.0" viewBox="0 0 24 24" xml:space="preserve" id="leasing-truck" xmlns="http://www.w3.org/2000/svg"><path d="M17.9 19.9c-1.3 0-2.4-.8-3-1.8-.4 0-.7-.2-1-.4-.4.3-1 .4-1.5.4h-1.1c-.5 1.1-1.7 1.9-3 1.9s-2.4-.8-3-1.9H4.2c-1.6 0-2.8-1.3-2.8-2.8V7c0-1.6 1.3-2.8 2.8-2.8h8.2c1.4 0 2.5 1 2.8 2.3h2.3c.6 0 1.1.3 1.5.7l3.2 4c.3.3.4.8.4 1.2v3.8c0 1-.7 1.8-1.7 1.9-.5 1-1.7 1.8-3 1.8zm0-4.6c-.7 0-1.3.6-1.3 1.3s.6 1.3 1.3 1.3 1.3-.6 1.3-1.3-.5-1.3-1.3-1.3zm-9.6 0c-.7 0-1.3.6-1.3 1.3s.6 1.3 1.3 1.3 1.3-.6 1.3-1.3-.5-1.3-1.3-1.3zm3.3.7h.9c.5 0 .8-.4.8-.8V7c0-.5-.4-.8-.8-.8H4.2c-.4-.1-.8.3-.8.8v8.2c0 .5.4.8.8.8h.9c.3-1.6 1.6-2.7 3.2-2.7s3 1.2 3.3 2.7zm3.7-7.6v6.2c.6-.8 1.6-1.4 2.7-1.4s2.1.5 2.7 1.4v-2.3l-3.2-3.9h-2.2z"/></svg><svg version="1.0" viewBox="0 0 24 24" xml:space="preserve" id="link" xmlns="http://www.w3.org/2000/svg"><path d="M21.2 2.8c-2.1-2.1-5.6-2.1-7.8 0L9.8 6.3c-.2.2 0 .6.3.6l1.6-.1c.3 0 .6-.1.8-.3l2.3-2.3c1.4-1.4 3.6-1.4 5 0s1.4 3.6 0 5l-3.5 3.5c-1.4 1.4-3.6 1.4-5 0l-.1-.1c-.3-.3-.6-.5-1-.5-.8 0-1.2.8-.8 1.4.2.2.3.4.5.6 2.1 2.1 5.6 2.1 7.8 0l3.5-3.5c2.1-2.2 2.1-5.7 0-7.8z"/><path d="M13.7 11.6c.8 0 1.3-.9.8-1.5l-.3-.3c-2.2-2.2-5.7-2.2-7.9 0l-3.4 3.4c-2.2 2.2-2.2 5.7 0 7.9s5.7 2.2 7.9 0l3.4-3.4c.2-.2 0-.5-.2-.5l-1.8.1c-.3 0-.6.1-.8.3l-2.1 2.1c-1.4 1.4-3.7 1.4-5.1 0-1.4-1.4-1.4-3.7 0-5.1l3.4-3.4c1.4-1.4 3.7-1.4 5.1 0 .3.3.6.4 1 .4z"/></svg><svg version="1.0" viewBox="0 0 24 24" xml:space="preserve" id="loading" xmlns="http://www.w3.org/2000/svg"><path d="M12 23c-.7 0-1.4-.1-2.2-.2-2.1-.4-4.1-1.5-5.6-3s-2.6-3.5-3-5.6C.8 12 1 9.8 1.8 7.8S4 4.1 5.9 2.9C7.7 1.6 9.8 1 12 1c.6 0 1 .4 1 1s-.4 1-1 1c-1.8 0-3.5.5-5 1.5s-2.6 2.4-3.3 4c-.7 1.7-.9 3.5-.5 5.3.3 1.8 1.2 3.3 2.5 4.6 1.3 1.3 2.9 2.1 4.6 2.5 1.8.3 3.6.2 5.2-.5 1.7-.7 3-1.8 4-3.3 1-1.5 1.5-3.2 1.5-5 0-.6.4-1 1-1s1 .4 1 1c0 2.2-.6 4.3-1.9 6.1-1.2 1.8-2.9 3.2-4.9 4.1-1.3.4-2.8.7-4.2.7z"/></svg><svg version="1.0" viewBox="0 0 24 24" xml:space="preserve" id="loan" xmlns="http://www.w3.org/2000/svg"><path d="M7.7 19.5c-.5.2-.8.7-.6 1.3.2.5.7.8 1.3.6l-.7-1.9zm6.2 1.3-.1-1 .1 1zm3.5-.7.4.9-.4-.9zm3.3-3-.8-.6.8.6zm-2.3-1.9.7.7-.7-.7zm-1.5 1.5.7.7-.7-.7zm-4.2-.3c-.6 0-1 .4-1 1s.4 1 1 1v-2zm7.6-1.4-.6.8.6-.8zm-11.1-.5.4.9-.4-.9zm4.2-.4.3-1-.3 1zm1.6.5-.3 1 .3-1zm.5 1.9-.7-.7.7.7zm-1.6.2c-.4.4-.4 1 0 1.4.4.4 1 .4 1.4 0l-1.4-1.4zm-5.5 4.7c.1 0 .3-.1.7 0 .4 0 .9.1 1.4.2 1 .2 2.3.4 3.4.3l-.2-2c-.8.1-1.8-.1-3-.3-.5-.1-1.1-.2-1.6-.2s-1 0-1.5.1l.8 1.9zm5.6.4c1.5-.1 2.3-.1 3.8-.9l-.9-1.8c-1.2.6-1.6.5-3.1.7l.2 2zm3.8-.8c1.4-.7 2.8-2.3 3.7-3.3L20 16.4c-.8 1-2 2.3-3 2.7l.8 1.9zm-.1-6.5L16.2 16l1.4 1.4 1.5-1.5-1.4-1.4zm-2.5 1.9h-2.5v2h2.5v-2zm1-.4c-.2.2-.6.4-.9.4v2c.9 0 1.7-.3 2.3-1L16.2 16zm4.7-1.8c-1-.7-2.3-.5-3.2.3l1.4 1.4c.2-.2.5-.2.7-.1l1.1-1.6zm.6 3.5c.9-1.2.6-2.8-.6-3.5l-1.1 1.7c.3.2.3.4.1.6l1.6 1.2zM3.8 14.5h3.1v-2H3.8v2zm2.9-.2v6.9h2v-6.9h-2zm.2 6.7H3.8v2h3.1v-2zm-2.9.2v-6.9H2v6.9h2zm-.2-.2c.1 0 .2.1.2.2H2c0 1 .8 1.8 1.8 1.8v-2zm2.9.2c0-.1.1-.2.2-.2v2c1 0 1.8-.8 1.8-1.8h-2zm.2-6.7c-.1 0-.2-.1-.2-.2h2c0-1-.8-1.8-1.8-1.8v2zm-3.1-2c-1 0-1.8.8-1.8 1.8h2c0 .1-.1.2-.2.2v-2zM8.5 16l1.2-.6-.9-1.8-1.2.6.9 1.8zm3.2-1.1h.3v-2h-.3v2zm1.4.2 1.6.4.5-1.9-1.6-.4-.5 1.9zm1.7.7-.9.9 1.4 1.4.9-.9-1.4-1.4zm0-.3c.1 0 .2.2.1.3l1.4 1.4c1.2-1.2.6-3.2-1-3.6l-.5 1.9zm-2.8-.6c.4 0 .8.1 1.2.2l.5-1.9c-.6-.1-1.1-.2-1.7-.2v1.9zm-2.3.5c.6-.3 1.3-.5 2-.5v-2c-1 0-2 .2-2.9.7l.9 1.8zm7-7.2c0 1.1-.9 2.1-2.1 2.1v2c2.3 0 4.1-1.8 4.1-4.1h-2zm-2.1 2c-1.2 0-2.1-.9-2.1-2.1h-2c0 2.3 1.8 4.1 4.1 4.1v-2zm-2.1-2c0-1.1.9-2.1 2.1-2.1v-2c-2.3 0-4.1 1.8-4.1 4.1h2zm2.1-2.1c1.2 0 2.1.9 2.1 2.1h2c0-2.3-1.8-4.1-4.1-4.1v2zm-3.1 1.1c-1.2 0-2.1-.9-2.1-2.1h-2c0 2.3 1.8 4.1 4.1 4.1v-2zM9.4 5.1c0-1.1.9-2.1 2.1-2.1V1C9.3 1 7.4 2.8 7.4 5.1h2zM11.5 3c1.2 0 2.1.9 2.1 2.1h2c0-2.3-1.8-4.1-4.1-4.1v2z"/></svg><svg version="1.0" viewBox="0 0 24 25" xml:space="preserve" id="location" xmlns="http://www.w3.org/2000/svg"><path d="M12 24.2c-.6 0-1.3-.2-1.8-.7C6.8 20.8 1 15.3 1 10.8c0-6.1 4.9-11 11-11s11 4.9 11 11c0 4.6-5.8 10-9.2 12.8-.5.4-1.2.6-1.8.6zm0-22.4c-5 0-9 4-9 9 0 4 6.5 9.7 8.5 11.3.3.3.8.3 1.1 0 5.3-4.4 8.5-8.6 8.5-11.3-.1-5-4.1-9-9.1-9z"/><path d="M12 14.8c-2.2 0-4-1.8-4-4s1.8-4 4-4 4 1.8 4 4-1.8 4-4 4zm0-6c-1.1 0-2 .9-2 2s.9 2 2 2 2-.9 2-2-.9-2-2-2z"/></svg><svg version="1.0" viewBox="0 0 24 24" xml:space="preserve" id="lock" xmlns="http://www.w3.org/2000/svg"><path d="M19 24H5c-2.2 0-4-1.8-4-4v-8c0-2.2 1.8-4 4-4h1V6c0-1.6.6-3.1 1.8-4.2C8.9.6 10.4 0 12 0s3.1.6 4.2 1.8C17.4 2.9 18 4.4 18 6v2h1c2.2 0 4 1.8 4 4v8c0 2.2-1.8 4-4 4zM5 10c-1.1 0-2 .9-2 2v8c0 1.1.9 2 2 2h14c1.1 0 2-.9 2-2v-8c0-1.1-.9-2-2-2h-1c0 .6-.4 1-1 1s-1-.4-1-1H8c0 .6-.4 1-1 1s-1-.4-1-1H5zm3-2h8V6c0-1.1-.4-2.1-1.2-2.8-1.5-1.5-4.1-1.5-5.7 0C8.4 3.9 8 4.9 8 6v2z"/></svg><svg version="1.0" viewBox="0 0 24 24" xml:space="preserve" id="luggage" xmlns="http://www.w3.org/2000/svg"><path d="M19.2 20.8H4.8c-1.9 0-3.4-1.5-3.4-3.4v-7.2c0-1.9 1.5-3.4 3.4-3.4h2.6V5.4c0-1.2 1-2.2 2.2-2.2h4.2c1.2 0 2.2 1 2.2 2.2v1.4h3.2c1.9 0 3.4 1.5 3.4 3.4v7.2c0 1.9-1.5 3.4-3.4 3.4zm-2.6-2h2.6c.8 0 1.4-.6 1.4-1.4v-7.2c0-.8-.6-1.4-1.4-1.4h-2.6v1H18c.6 0 1 .4 1 1V15c0 .6-.4 1-1 1h-1.4v2.8zm-7.8 0h5.8V16h-2c-.6 0-1-.4-1-1v-4.2c0-.6.4-1 1-1h2v-1H8.8v10zm-4-10c-.8 0-1.4.6-1.4 1.4v7.2c0 .8.6 1.4 1.4 1.4h2v-10h-2zm8.8 5.2H17v-2.2h-3.4V14zM9.4 6.8H14V5.4c0-.1-.1-.2-.2-.2H9.6c-.1 0-.2.1-.2.2v1.4z"/></svg><svg version="1.0" viewBox="0 0 24 24" xml:space="preserve" id="mail" xmlns="http://www.w3.org/2000/svg"><path d="M21.2 20.8H2.8C1.2 20.8 0 19.5 0 18V6c0-1.5 1.2-2.8 2.8-2.8h18.5C22.8 3.2 24 4.5 24 6v12c0 1.5-1.2 2.8-2.8 2.8zM2.8 5.1c-.5 0-1 .4-1 .9v12c0 .5.4.9.9.9h18.5c.5 0 .9-.4.9-.9V6c0-.5-.4-.9-.9-.9H2.8z"/><path d="M12 14.2c-.9 0-1.8-.3-2.5-1L1.6 6c-.5-.4-.6-1.1-.4-1.7.2-.6.8-1 1.5-1h18.6c.7 0 1.3.4 1.5 1s.1 1.3-.4 1.8l-7.9 7.2c-.7.6-1.6.9-2.5.9zM3.3 5.1l7.5 6.8c.7.7 1.8.7 2.5 0l7.5-6.8H3.3zm-.4-.4z"/></svg><svg version="1.0" viewBox="0 0 24 24" xml:space="preserve" id="map" xmlns="http://www.w3.org/2000/svg"><path d="M16 24c-.2 0-.3 0-.4-.1L8 20.1l-6.5 3.7c-.3.2-.7.2-1 0-.3-.1-.5-.4-.5-.8V5c0-.4.2-.7.5-.9l7-4c.3-.1.6-.1.9 0L16 3.9 22.5.2c.3-.2.7-.2 1 0 .3.1.5.4.5.8v18c0 .4-.2.7-.5.9l-7 4c-.2.1-.3.1-.5.1zm-7-5.6 6 3V5.6l-6-3v15.8zm8-12.8v15.7l5-2.9V2.7l-5 2.9zm-15 0v15.7l5-2.9V2.7L2 5.6z"/></svg><svg version="1.0" viewBox="0 0 24 24" xml:space="preserve" id="maturity" xmlns="http://www.w3.org/2000/svg"><path fill-rule="evenodd" clip-rule="evenodd" d="M14 12v10H8v-6c-.1-1.6-.5-3.1-1.7-4.3C5.1 10.5 3.6 10.1 2 10H0v2c.1 1.6.5 3.1 1.7 4.3C2.9 17.5 4.4 17.9 6 18v4H0v2h24v-2h-8V12c2.2-.1 4.2-.5 5.9-2.1 1.6-1.6 2-3.7 2.1-5.9V2h-2c-2.2.1-4.2.5-5.9 2.1-.4.4-.7.8-.9 1.2-.4-1-.9-1.9-1.8-2.7C11.4.5 8.7.1 6 0H4v2c.1 2.7.5 5.4 2.6 7.4 2 2.1 4.7 2.5 7.4 2.6zm-2-8c1.5 1.5 1.9 3.4 2 6-2.5-.1-4.5-.4-6-2-1.5-1.5-1.9-3.4-2-6 2.6.1 4.5.5 6 2zm8.4 4.4C19.3 9.5 17.9 9.9 16 10c.1-1.9.4-3.3 1.5-4.4S20.1 4.1 22 4c-.1 1.9-.5 3.3-1.6 4.4zM5.9 15.9c-.1-1.2-.4-2.1-1.1-2.8S3.2 12.1 2 12c.1 1.2.4 2.1 1.1 2.8s1.6 1 2.8 1.1z"/></svg><svg version="1.0" viewBox="0 0 24 24" xml:space="preserve" id="menu" xmlns="http://www.w3.org/2000/svg"><path d="M22 13H2c-.6 0-1-.4-1-1s.4-1 1-1h20c.6 0 1 .4 1 1s-.4 1-1 1zm0-8H2c-.6 0-1-.4-1-1s.4-1 1-1h20c.6 0 1 .4 1 1s-.4 1-1 1zm0 16H2c-.6 0-1-.4-1-1s.4-1 1-1h20c.6 0 1 .4 1 1s-.4 1-1 1z"/></svg><svg version="1.0" viewBox="0 0 24 24" xml:space="preserve" id="menu-left" xmlns="http://www.w3.org/2000/svg"><path d="M13.8 20.2H2.4c-.6 0-1-.4-1-1s.4-1 1-1h11.4c.6 0 1 .4 1 1s-.4 1-1 1zm7.8-7.2H2.4c-.6 0-1-.4-1-1s.4-1 1-1h19.2c.6 0 1 .4 1 1s-.4 1-1 1zm0-7.2H2.4c-.6 0-1-.4-1-1s.4-1 1-1h19.2c.6 0 1 .4 1 1s-.4 1-1 1z"/></svg><svg version="1.0" viewBox="0 0 24 24" xml:space="preserve" id="menu-right" xmlns="http://www.w3.org/2000/svg"><path d="M21.6 20.2H10.2c-.6 0-1-.4-1-1s.4-1 1-1h11.4c.6 0 1 .4 1 1s-.4 1-1 1zm0-7.2H2.4c-.6 0-1-.4-1-1s.4-1 1-1h19.2c.6 0 1 .4 1 1s-.4 1-1 1zm0-7.2H2.4c-.6 0-1-.4-1-1s.4-1 1-1h19.2c.6 0 1 .4 1 1s-.4 1-1 1z"/></svg><svg version="1.0" viewBox="0 0 24 24" xml:space="preserve" id="message" xmlns="http://www.w3.org/2000/svg"><path d="M1.9 22.5c-.3 0-.5-.1-.8-.2-.7-.2-1.1-.9-1.1-1.6V7.9c0-3.6 2.9-6.5 6.5-6.5h11.1c3.6 0 6.5 2.9 6.5 6.5v3.7c0 3.6-2.9 6.5-6.5 6.5H8.1c-.2 0-.4.1-.6.2L3 22.1c-.3.3-.7.4-1.1.4zM6.5 3.3C4 3.3 1.9 5.4 1.9 7.9v4.4l-.1.2v8.1l4.4-3.8c.5-.4 1.1-.7 1.8-.7h9.5c2.5 0 4.6-2.1 4.6-4.6V7.9c0-2.5-2.1-4.6-4.6-4.6h-11z"/></svg><svg version="1.0" viewBox="0 0 24 24" xml:space="preserve" id="message-success" xmlns="http://www.w3.org/2000/svg"><path d="M12 22.6c-.4 0-.7-.2-.9-.6L9 17.6H4.8c-1.9 0-3.4-1.5-3.4-3.4V4.8c0-1.9 1.5-3.4 3.4-3.4h14.4c1.9 0 3.4 1.5 3.4 3.4v9.4c0 1.9-1.5 3.4-3.4 3.4h-4l-2.3 4.5c-.2.3-.5.5-.9.5zM4.8 3.4c-.8 0-1.4.6-1.4 1.4v9.4c0 .8.6 1.4 1.4 1.4h4.8c.4 0 .7.2.9.6l1.5 3.2 1.7-3.2c.2-.3.5-.5.9-.5h4.6c.8 0 1.4-.6 1.4-1.4V4.8c0-.8-.6-1.4-1.4-1.4H4.8zm6.6 9c-.3 0-.5-.1-.7-.3l-1.8-1.8c-.4-.4-.4-1 0-1.4s1-.4 1.4 0l1.1 1.1 3.5-3.5c.4-.4 1-.4 1.4 0s.4 1 0 1.4l-4.2 4.2c-.2.2-.4.3-.7.3z"/></svg><svg version="1.0" viewBox="0 0 24 24" xml:space="preserve" id="message-unread" xmlns="http://www.w3.org/2000/svg"><path d="M18 22.6c-.3 0-.5-.1-.7-.3L13 17.8H4.8c-1.9 0-3.4-1.5-3.4-3.4V4.8c0-1.9 1.5-3.4 3.4-3.4h6.6c.6 0 1 .4 1 1s-.4 1-1 1H4.8c-.8 0-1.4.6-1.4 1.4v9.6c0 .8.6 1.4 1.4 1.4h8.7c.3 0 .5.1.7.3l2.8 3v-2.3c0-.6.4-1 1-1h1.2c.8 0 1.4-.6 1.4-1.4V12c0-.6.4-1 1-1s1 .4 1 1v2.4c0 1.9-1.5 3.4-3.4 3.4H19v3.8c0 .4-.2.8-.6.9-.2.1-.3.1-.4.1zm.6-13.2c-2.2 0-4-1.8-4-4s1.8-4 4-4 4 1.8 4 4-1.8 4-4 4zm0-6c-1.1 0-2 .9-2 2s.9 2 2 2 2-.9 2-2-.9-2-2-2z"/></svg><svg version="1.0" viewBox="0 0 24 24" xml:space="preserve" id="microphone" xmlns="http://www.w3.org/2000/svg"><path d="M16 24H8c-.6 0-1-.4-1-1s.4-1 1-1h3v-2.1C7.1 19.4 4 16 4 12V9.5c0-.6.4-1 1-1s1 .4 1 1V12c0 3.3 2.7 6 6 6s6-2.7 6-6V9.5c0-.6.4-1 1-1s1 .4 1 1V12c0 4.1-3.1 7.4-7 7.9V22h3c.6 0 1 .4 1 1s-.4 1-1 1zm-4-8c-2.2 0-4-1.8-4-4V4c0-2.2 1.8-4 4-4s4 1.8 4 4v8c0 2.2-1.8 4-4 4zm0-14c-1.1 0-2 .9-2 2v8c0 1.1.9 2 2 2s2-.9 2-2V4c0-1.1-.9-2-2-2z"/></svg><svg version="1.0" viewBox="0 0 24 24" xml:space="preserve" id="minus" xmlns="http://www.w3.org/2000/svg"><path d="M21 13H3c-.6 0-1-.4-1-1s.4-1 1-1h18c.6 0 1 .4 1 1s-.4 1-1 1z"/></svg><svg version="1.0" viewBox="0 0 24 24" xml:space="preserve" id="moon" xmlns="http://www.w3.org/2000/svg"><path d="M8.4 2h-.2C4.3 3.5 2 7.3 2 11.7 2 17.4 6.6 22 12.3 22c4.4 0 8.2-2.3 9.7-6.2 0-.1.1-.3 0-.4 0-.1-.1-.3-.2-.4-.1-.1-.2-.2-.4-.2H21c-1 .4-2.1.6-3.3.6-4.8 0-9.2-4.4-9.2-9.2 0-1.1.2-2.2.6-3.2 0-.1.1-.2 0-.4 0-.1-.1-.2-.1-.3 0-.1-.1-.2-.2-.2-.1-.1-.2-.1-.4-.1zM7.3 4.1c-.1.7-.2 1.4-.2 2.2 0 5.7 5 10.7 10.7 10.7.7 0 1.4-.1 2.1-.2-1.5 2.5-4.3 3.8-7.6 3.8-4.9 0-8.8-3.9-8.8-8.8 0-3.4 1.3-6.1 3.8-7.7z"/></svg><svg version="1.0" viewBox="0 0 24 24" xml:space="preserve" id="notifications" xmlns="http://www.w3.org/2000/svg"><path d="M12 22.6c-1.3 0-2.6-.4-3.6-1.2-.4-.3-.5-1-.2-1.4.3-.4 1-.5 1.4-.2 1.3 1 3.5 1 4.8 0 .4-.3 1.1-.2 1.4.2.3.4.2 1.1-.2 1.4-1 .8-2.3 1.2-3.6 1.2zm8.4-4.1H3.6c-.6 0-1.1-.3-1.4-.9-.3-.6-.3-1.3.1-1.8.5-.7 1.1-1.8 1.1-3.3v-2.3c0-4.9 3.8-8.8 8.5-8.8 4.8 0 8.7 4 8.7 9v2.2c0 1.4.6 2.6 1.1 3.3.4.5.4 1.2.1 1.8-.3.5-.8.8-1.4.8zm-16.1-2h15.5c-.6-.9-1.1-2.3-1.1-4v-2.2c0-3.8-3-6.9-6.7-6.9-3.6 0-6.5 3.1-6.5 6.8v2.3c-.1 1.7-.7 3.1-1.2 4z"/></svg><svg version="1.0" viewBox="0 0 24 24" xml:space="preserve" id="notifications-ringing" xmlns="http://www.w3.org/2000/svg"><path d="m8.7 21.6-.5-.9.5.9zm-.8-.6-1-.1 1 .1zm-.7-3.5-.9.5.9-.5zm-1-1.8.9-.5-.9.5zM21.8 14l.5.9-.5-.9zm-.1-1 .4-.9-.4.9zM19 10.7l-.9.5.9-.5zM18.1 9l.9-.5-.9.5zM8.7 6.4l.5.9-.5-.9zm6.2 15.1.5.9-.5-.9zM1.1 11.6c.1.5.6.9 1.1.8.5-.1.9-.6.8-1.1l-1.9.3zm2.7-3.8c.3-.5.1-1.1-.3-1.4-.5-.3-1.2-.2-1.4.3l1.7 1.1zM11.9 1c-.6 0-1 .5-1 1 0 .6.5 1 1 1V1zm3.5 3.1c.4.3 1.1.3 1.4-.1.3-.4.3-1.1-.1-1.4l-1.3 1.5zm-6.5 17c.1-1.1 0-2.6-.8-4.1l-1.7 1c.6 1 .6 2 .5 2.9l2 .2zM8.1 17l-1-1.8-1.7 1 1 1.8 1.7-1zm14-4.9c-.8-.3-1.6-.9-2.2-1.9l-1.7 1c.8 1.5 2.1 2.3 3.1 2.8l.8-1.9zm-2.2-1.9L19 8.5l-1.7 1 .9 1.7 1.7-1zm-1-1.7c-2.2-3.8-7-5.1-10.8-2.9l1 1.7c2.8-1.6 6.4-.7 8 2.2l1.8-1zm3.4 6.4c.6-.4.8-1 .7-1.5-.1-.5-.3-1-.9-1.3l-.8 1.8c-.3-.1-.3-.2-.3-.3 0 0 0-.3.3-.5l1 1.8zm-15.2.3c-1.6-2.8-.7-6.4 2.1-8l-1-1.7c-3.7 2.2-5 6.9-2.8 10.7l1.7-1zm1.1 5.6c.3-.2.5 0 .5 0s.2.1.1.4l-2-.2c-.1.6.3 1.2.6 1.5.4.3 1 .5 1.7.1l-.9-1.8zm13.1-7.6L8.2 20.8l1 1.7 13.1-7.6-1-1.7zm-6 4.6c.5.9.2 2.2-.9 2.9l1 1.7c2-1.1 2.8-3.6 1.6-5.6l-1.7 1zm-.9 2.9c-1.1.6-2.4.3-3-.7l-1.7 1c1.1 2 3.7 2.5 5.7 1.4l-1-1.7zM8.6 4c.3.6.1 1.3-.4 1.6l1 1.7c1.5-.9 2-2.8 1.2-4.3L8.6 4zm-.4 1.6c-.6.3-1.3.1-1.6-.5l-1.7 1c.9 1.5 2.8 2 4.3 1.2l-1-1.7zm-1.6-.5c-.3-.5-.1-1.2.4-1.6L6 1.8c-1.5.9-2 2.8-1.1 4.3l1.7-1zM7 3.5c.6-.3 1.3-.1 1.6.5l1.7-1C9.5 1.5 7.5.9 6 1.8l1 1.7zm-3.9 7.8c-.2-1.3.1-2.5.7-3.6l-1.7-1c-.9 1.5-1.2 3.2-1 4.9l2-.3zM12 3c1.3 0 2.5.4 3.4 1.1l1.3-1.6C15.4 1.4 13.7.9 12 .9V3z"/></svg><svg version="1.0" viewBox="0 0 24 24" xml:space="preserve" id="outbound" xmlns="http://www.w3.org/2000/svg"><path d="M12 4c4.4 0 8 3.6 8 8s-3.6 8-8 8-8-3.6-8-8 3.6-8 8-8m0-2C6.5 2 2 6.5 2 12s4.5 10 10 10 10-4.5 10-10S17.5 2 12 2zm1.9 9.5-5 5-1.4-1.4 5-5L10.3 8H16v5.6l-2.1-2.1z"/></svg><svg version="1.0" viewBox="0 0 24 24" xml:space="preserve" id="password" xmlns="http://www.w3.org/2000/svg"><path d="M19.5 18.4h-15c-1.7 0-3.1-1.4-3.1-3.1V8.7c0-1.7 1.4-3.1 3.1-3.1h14.9c1.7 0 3.1 1.4 3.1 3.1v6.5c.1 1.8-1.3 3.2-3 3.2zM4.5 7.6c-.6 0-1.1.5-1.1 1.1v6.5c0 .6.5 1.1 1.1 1.1h14.9c.6 0 1.1-.5 1.1-1.1V8.7c0-.6-.5-1.1-1.1-1.1H4.5zm13 5.4h-.1c-.6 0-1-.4-1-1s.4-1 1-1h.1c.6 0 1 .4 1 1s-.5 1-1 1zm-5.4 0H12c-.6 0-1-.4-1-1s.4-1 1-1h.1c.6 0 1 .4 1 1s-.4 1-1 1zm-5.4 0h-.2c-.6 0-1-.4-1-1s.4-1 1-1h.1c.6 0 1 .4 1 1 .1.6-.4 1-.9 1z"/></svg><svg version="1.0" viewBox="0 0 24 24" xml:space="preserve" id="password-security" xmlns="http://www.w3.org/2000/svg"><path d="M18.4 21.1c-.2 0-.4-.1-.5-.2-2.4-1.5-3.5-2.7-3.5-4v-3.3c0-.4.2-.7.6-.9l1.4-.7c1.3-.6 2.8-.6 4.1 0l1.4.7c.3.2.6.5.6.9v3.3c0 1.8-1.7 2.9-3.5 4-.2.1-.4.2-.6.2zm-2-6.9v2.7c0 .1.1.7 2 2 1.3-.9 2-1.4 2-2v-2.7l-.8-.4c-.7-.4-1.6-.4-2.3 0l-.9.4zm-5 1.5H4.5c-1.7 0-3.1-1.4-3.1-3.1V6c0-1.7 1.4-3.1 3.1-3.1h14.9c1.7 0 3.1 1.4 3.1 3.1v3.3c0 .6-.4 1-1 1s-1-.4-1-1V6c0-.6-.5-1.1-1.1-1.1H4.5c-.6 0-1.1.5-1.1 1.1v6.5c0 .6.5 1.1 1.1 1.1h6.9c.6 0 1 .4 1 1s-.4 1.1-1 1.1zm6.1-5.4h-.1c-.6 0-1-.4-1-1s.4-1 1-1h.1c.6 0 1 .4 1 1s-.5 1-1 1zm-5.4 0H12c-.6 0-1-.4-1-1s.4-1 1-1h.1c.6 0 1 .4 1 1s-.4 1-1 1zm-5.4 0h-.2c-.6 0-1-.4-1-1s.4-1 1-1h.1c.6 0 1 .4 1 1s-.4 1-.9 1z"/></svg><svg version="1.0" viewBox="0 0 24 24" xml:space="preserve" id="paste" xmlns="http://www.w3.org/2000/svg"><path d="M18 24H6c-2.2 0-4-1.8-4-4V6c0-2.2 1.8-4 4-4h.2C6.6.8 7.7 0 9 0h6c1.3 0 2.4.8 2.8 2h.2c2.2 0 4 1.8 4 4v14c0 2.2-1.8 4-4 4zM6 4c-1.1 0-2 .9-2 2v14c0 1.1.9 2 2 2h12c1.1 0 2-.9 2-2V6c0-1.1-.9-2-2-2 0 1.7-1.3 3-3 3H9C7.3 7 6 5.7 6 4zm1-1h1v1c0 .6.4 1 1 1h6c.6 0 1-.4 1-1V3h1-1c0-.6-.4-1-1-1H9c-.6 0-1 .4-1 1H7z"/></svg><svg version="1.0" viewBox="0 0 24 24" xml:space="preserve" id="pause" xmlns="http://www.w3.org/2000/svg"><path d="M19.5 21h-3c-1.4 0-2.5-1.1-2.5-2.5v-13C14 4.1 15.1 3 16.5 3h3C20.9 3 22 4.1 22 5.5v13c0 1.4-1.1 2.5-2.5 2.5zm-3-16c-.3 0-.5.2-.5.5v13c0 .3.2.5.5.5h3c.3 0 .5-.2.5-.5v-13c0-.3-.2-.5-.5-.5h-3zm-9 16h-3C3.1 21 2 19.9 2 18.5v-13C2 4.1 3.1 3 4.5 3h3C8.9 3 10 4.1 10 5.5v13c0 1.4-1.1 2.5-2.5 2.5zm-3-16c-.3 0-.5.2-.5.5v13c0 .3.2.5.5.5h3c.3 0 .5-.2.5-.5v-13c0-.3-.2-.5-.5-.5h-3z"/></svg><svg version="1.0" viewBox="0 0 24 24" xml:space="preserve" id="pause-circle" xmlns="http://www.w3.org/2000/svg"><path d="M10.5 7.2c0-.6-.4-1-1-1s-1 .4-1 1h2zm-1 4.8h-1 1zm-1 4.8c0 .6.4 1 1 1s1-.4 1-1h-2zm7-9.6c0-.6-.4-1-1-1s-1 .4-1 1h2zm-1 4.8h-1 1zm-1 4.8c0 .6.4 1 1 1s1-.4 1-1h-2zm7.1-4.8c0 4.7-3.9 8.6-8.6 8.6v2c5.9 0 10.6-4.7 10.6-10.6h-2zM12 20.6c-4.7 0-8.6-3.9-8.6-8.6h-2c0 5.9 4.7 10.6 10.6 10.6v-2zM3.4 12c0-4.7 3.9-8.6 8.6-8.6v-2C6.1 1.4 1.4 6.1 1.4 12h2zM12 3.4c4.7 0 8.6 3.9 8.6 8.6h2c0-5.9-4.7-10.6-10.6-10.6v2zM8.5 7.2V12h2V7.2h-2zm0 4.8v4.8h2V12h-2zm5-4.8V12h2V7.2h-2zm0 4.8v4.8h2V12h-2z"/></svg><svg version="1.0" viewBox="0 0 24 24" xml:space="preserve" id="play" xmlns="http://www.w3.org/2000/svg"><path d="M6.7 20.8c-.4 0-.8-.1-1.2-.3-.8-.4-1.3-1.3-1.3-2.2V5.7c0-.9.5-1.7 1.3-2.2.8-.5 1.7-.5 2.5 0l10.5 6.3c.8.5 1.2 1.3 1.2 2.1 0 .9-.5 1.7-1.2 2.1L8 20.5c-.4.2-.8.3-1.3.3zm0-15.6c-.1 0-.2 0-.2.1-.1 0-.3.2-.3.4v12.7c0 .3.2.4.3.4.1 0 .3.1.5 0l10.5-6.3c.2-.1.2-.3.2-.4 0-.1 0-.3-.2-.4L7 5.2h-.3z"/></svg><svg version="1.0" viewBox="0 0 24 24" xml:space="preserve" id="plus" xmlns="http://www.w3.org/2000/svg"><path d="M12 22c-.6 0-1-.4-1-1v-8H3c-.6 0-1-.4-1-1s.4-1 1-1h8V3c0-.6.4-1 1-1s1 .4 1 1v8h8c.6 0 1 .4 1 1s-.4 1-1 1h-8v8c0 .6-.4 1-1 1z"/></svg><svg version="1.0" viewBox="0 0 24 24" xml:space="preserve" id="print" xmlns="http://www.w3.org/2000/svg"><path d="M19 24H5c-.6 0-1-.4-1-1v-6c0-.6.4-1 1-1h14c.6 0 1 .4 1 1v6c0 .6-.4 1-1 1zM6 22h12v-4H6v4zM19 7H5c-.6 0-1-.4-1-1V1c0-.6.4-1 1-1h14c.6 0 1 .4 1 1v5c0 .6-.4 1-1 1zM6 5h12V2H6v3z"/><path d="M23 18H1c-.6 0-1-.4-1-1V9c0-2.2 1.8-4 4-4h16c2.2 0 4 1.8 4 4v8c0 .6-.4 1-1 1zM2 16h20V9c0-1.1-.9-2-2-2H4c-1.1 0-2 .9-2 2v7z"/><path d="M18 14c-1.1 0-2-.9-2-2s.9-2 2-2 2 .9 2 2-.9 2-2 2zm0-2zm0 0zm0 0zm0 0zm0 0zm0 0zm0 0zm0 0z"/></svg><svg version="1.0" viewBox="0 0 24 24" xml:space="preserve" id="profile" xmlns="http://www.w3.org/2000/svg"><path d="M21 22.8c-.5 0-.9-.4-1-.8l-.2-1.1c-.2-1-.8-1.8-1.7-2.1-1.5-.5-3.8-1-6.2-1-2.4 0-4.7.5-6.2 1-.7.2-1.4 1-1.5 2L4 21.9c-.1.5-.6.9-1.1.8-.5-.1-.9-.6-.8-1.1l.2-1.1c.3-1.8 1.5-3.2 3.1-3.7s4.1-1.1 6.8-1.1 5.1.6 6.8 1.1c1.6.5 2.8 1.9 3.1 3.7l.2 1.1c.1.5-.3 1.1-.8 1.1-.4 0-.5.1-.5.1zm-9-9.6c-3.3 0-6-2.7-6-6s2.7-6 6-6 6 2.7 6 6-2.7 6-6 6zm0-10c-2.2 0-4 1.8-4 4s1.8 4 4 4 4-1.8 4-4-1.8-4-4-4z"/></svg><svg version="1.0" viewBox="0 0 24 24" xml:space="preserve" id="profile-add" xmlns="http://www.w3.org/2000/svg"><path d="M1.4 21.6c0 .6.4 1 1 1s1-.4 1-1h-2zm1-3.6h1-1zm10.2-2.6c.6 0 1-.4 1-1s-.4-1-1-1v2zm9 1.2c.6 0 1-.4 1-1s-.4-1-1-1v2zm-5.4-2c-.6 0-1 .4-1 1s.4 1 1 1v-2zm1.7 3.7c0 .6.4 1 1 1s1-.4 1-1h-2zm2-5.4c0-.6-.4-1-1-1s-1 .4-1 1h2zM13.4 6c0 1.4-1.2 2.6-2.6 2.6v2c2.5 0 4.6-2.1 4.6-4.6h-2zm-2.6 2.6C9.4 8.6 8.2 7.4 8.2 6h-2c0 2.5 2.1 4.6 4.6 4.6v-2zM8.2 6c0-1.4 1.2-2.6 2.6-2.6v-2C8.3 1.4 6.2 3.5 6.2 6h2zm2.6-2.6c1.4 0 2.6 1.2 2.6 2.6h2c0-2.5-2.1-4.6-4.6-4.6v2zM3.4 21.6V18h-2v3.6h2zM6 13.4c-2.5 0-4.6 2.1-4.6 4.6h2c0-1.4 1.2-2.6 2.6-2.6v-2zm0 2h6.6v-2H6v2zm15.6-.8h-2.7v2h2.7v-2zm-2.7 0h-2.7v2h2.7v-2zm1 3.7v-2.7h-2v2.7h2zm0-2.7v-2.7h-2v2.7h2z"/></svg><svg version="1.0" viewBox="0 0 24 24" xml:space="preserve" id="profile-multiple" xmlns="http://www.w3.org/2000/svg"><path d="M21.6 21.6c-.6 0-1-.4-1-1v-3.2c0-.6-.2-1.1-.6-1.6-.4-.4-1-.6-1.6-.6-.6 0-1-.4-1-1s.4-1 1-1c1.1 0 2.2.4 3 1.2.8.8 1.2 1.9 1.2 3v3.2c0 .5-.4 1-1 1zm-5.6 0c-.6 0-1-.4-1-1v-3.2c0-.6-.2-1.1-.6-1.6-.4-.4-1-.6-1.6-.6H5.6c-1.2 0-2.2 1-2.2 2.2v3.2c0 .6-.4 1-1 1s-1-.4-1-1v-3.2c0-2.3 1.9-4.2 4.2-4.2h7.2c1.1 0 2.2.4 3 1.2.8.8 1.2 1.9 1.2 3v3.2c0 .5-.4 1-1 1zM9.3 10.9C7 10.9 5.1 9 5.1 6.6S7 2.4 9.3 2.4s4.2 1.9 4.2 4.2-1.9 4.3-4.2 4.3zm0-6.5c-1.2 0-2.2 1-2.2 2.2 0 1.2 1 2.2 2.2 2.2 1.2 0 2.2-1 2.2-2.2 0-1.2-1-2.2-2.2-2.2zm6.1 5.8c-.3 0-.6-.1-.8-.4-.3-.4-.2-1.1.2-1.4.6-.4.9-1.1.9-1.8s-.3-1.4-.9-1.8c-.4-.3-.5-1-.2-1.4.3-.4 1-.5 1.4-.2 1.1.8 1.7 2.1 1.7 3.4 0 1.3-.6 2.6-1.7 3.4-.2.2-.4.2-.6.2z"/></svg><svg version="1.0" viewBox="0 0 24 24" xml:space="preserve" id="profile-success" xmlns="http://www.w3.org/2000/svg"><path d="M2.4 22.6c-.6 0-1-.4-1-1V18c0-2.5 2.1-4.6 4.6-4.6h7.2c.6 0 1 .4 1 1s-.4 1-1 1H6c-1.4 0-2.6 1.2-2.6 2.6v3.6c0 .6-.4 1-1 1zm15-3c-.3 0-.5-.1-.7-.3l-1.2-1.2c-.4-.4-.4-1 0-1.4s1-.4 1.4 0l.5.5 3.5-3.5c.4-.4 1-.4 1.4 0s.4 1 0 1.4l-4.2 4.2c-.2.2-.4.3-.7.3zm-6.6-9c-2.5 0-4.6-2.1-4.6-4.6s2.1-4.6 4.6-4.6c2.5 0 4.6 2.1 4.6 4.6s-2.1 4.6-4.6 4.6zm0-7.2C9.4 3.4 8.2 4.6 8.2 6s1.2 2.6 2.6 2.6 2.6-1.2 2.6-2.6-1.2-2.6-2.6-2.6z"/></svg><svg version="1.0" viewBox="0 0 24 24" xml:space="preserve" id="reciept" xmlns="http://www.w3.org/2000/svg"><path d="M14.6 22c-.2 0-.4-.1-.6-.2l-2-1.4-2 1.4c-.3.2-.8.2-1.1 0l-2-1.4-2 1.4c-.3.2-.7.2-1 .1-.3-.2-.5-.5-.5-.9V4.8C3.2 3.3 4.3 2 5.8 2h12.5c1.4 0 2.6 1.3 2.6 2.8V21c0 .4-.2.7-.5.9-.3.2-.7.1-1-.1l-2-1.4-2 1.4c-.4.1-.6.2-.8.2zm-7.8-3.8c.2 0 .4.1.6.2l2 1.4 2-1.4c.3-.2.8-.2 1.1 0l2 1.4 2-1.4c.3-.2.8-.2 1.1 0l1 .7V4.8c0-.5-.3-.8-.6-.8H5.8c-.3 0-.6.3-.6.8v14.3l1-.7c.2-.1.4-.2.6-.2zm9.4-4.6H7.8c-.6 0-1-.4-1-1s.4-1 1-1h8.4c.6 0 1 .4 1 1s-.4 1-1 1zm0-4.8H7.8c-.6 0-1-.4-1-1s.4-1 1-1h8.4c.6 0 1 .4 1 1s-.4 1-1 1z"/></svg><svg version="1.0" viewBox="0 0 24 24" xml:space="preserve" id="refresh" xmlns="http://www.w3.org/2000/svg"><path d="M12 22c-1.9 0-3.7-.5-5.3-1.5-1.4-.8-2.5-2-3.3-3.4l-.5.9c-.3.5-.9.7-1.4.4-.5-.3-.7-.9-.4-1.4l1.2-2.3c.1-.3.4-.5.7-.5l2.6-.4c.5-.1 1.1.3 1.1.8.1.5-.3 1.1-.8 1.1l-.9.1c.7 1.1 1.6 2 2.7 2.7C9 19.6 10.6 20 12.1 20c1.6 0 3.1-.5 4.3-1.4 1.3-.9 2.3-2.1 2.9-3.5.2-.5.8-.7 1.3-.5.5.2.7.8.5 1.3-.8 1.8-2 3.3-3.6 4.4-1.5 1.1-3.4 1.7-5.4 1.7H12zm6.2-11.3c-.5 0-.9-.4-1-.9-.1-.5.3-1.1.8-1.1l1.1-.2c-.6-1.3-1.6-2.4-2.8-3.2-1.4-1-3.1-1.4-4.8-1.4-1.5.2-3.1.7-4.5 1.8-1.3 1-2.3 2.5-2.8 4.1-.2.5-.7.8-1.2.7-.5-.2-.8-.7-.7-1.2.6-2 1.8-3.8 3.5-5.1 1.7-1.3 3.7-2 5.8-2.1 2.1-.1 4.2.5 5.9 1.7 1.4.9 2.5 2.1 3.2 3.5l.4-.7c.3-.5.9-.7 1.4-.4.5.3.7.9.4 1.4l-1.2 2.3c-.1.3-.4.5-.7.5l-2.6.4c-.1-.1-.1-.1-.2-.1z"/></svg><svg version="1.0" viewBox="0 0 24 24" xml:space="preserve" id="rennovation" xmlns="http://www.w3.org/2000/svg"><path d="M19.7 22.6H4.3c-1.6 0-2.9-1.3-2.9-2.8V9.2c0-.7.4-1.4 1-1.8l8.3-5.6c.8-.5 1.8-.5 2.6 0l8.3 5.6c.6.4 1 1.1 1 1.8v10.5c0 1.6-1.3 2.9-2.9 2.9zM12 3.4c-.1 0-.1 0-.2.1L3.5 9.1c-.1 0-.1.1-.1.2v10.5c0 .5.4.8.9.8h15.4c.5 0 .9-.4.9-.8V9.2c0-.1 0-.1-.1-.2l-8.3-5.6H12zm-.7-.8zm5.5 15.8H7.2c-.6 0-1-.4-1-1s.4-1 1-1h9.6c.6 0 1 .4 1 1s-.4 1-1 1z"/></svg><svg version="1.0" viewBox="0 0 24 24" xml:space="preserve" id="reorder" xmlns="http://www.w3.org/2000/svg"><path d="M19.5 22.6h-15c-1.7 0-3.1-1.4-3.1-3.1v-3.2c0-1.7 1.4-3.1 3.1-3.1h15c1.7 0 3.1 1.4 3.1 3.1v3.2c0 1.7-1.4 3.1-3.1 3.1zm-15-7.5c-.6 0-1.1.5-1.1 1.1v3.2c0 .6.5 1.1 1.1 1.1h15c.6 0 1.1-.5 1.1-1.1v-3.2c0-.6-.5-1.1-1.1-1.1h-15zm15-4.2h-15c-1.7 0-3.1-1.4-3.1-3.1V4.5c0-1.7 1.4-3.1 3.1-3.1h15c1.7 0 3.1 1.4 3.1 3.1v3.2c0 1.8-1.4 3.2-3.1 3.2zm-15-7.5c-.6 0-1.1.5-1.1 1.1v3.2c0 .6.5 1.1 1.1 1.1h15c.6 0 1.1-.5 1.1-1.1V4.5c0-.6-.5-1.1-1.1-1.1h-15z"/></svg><svg version="1.0" viewBox="0 0 24 24" xml:space="preserve" id="resize" xmlns="http://www.w3.org/2000/svg"><path d="M10.9 21.4H3.6c-.6 0-1-.4-1-1v-7.3c0-.6.4-1 1-1s1 .4 1 1v4.8l5-5c.4-.4 1-.4 1.4 0 .4.4.4 1 0 1.4l-5.2 5.2h5c.6 0 1 .4 1 1s-.3.9-.9.9zm9.5-9.5c-.6 0-1-.4-1-1v-5l-5 5c-.4.4-1 .4-1.4 0-.4-.4-.4-1 0-1.4l4.9-4.9h-4.7c-.6 0-1-.4-1-1s.4-1 1-1h7.3c.6 0 1 .4 1 1v7.3c-.1.6-.6 1-1.1 1z"/></svg><svg version="1.0" viewBox="0 0 24 24" xml:space="preserve" id="scroll" xmlns="http://www.w3.org/2000/svg"><path d="M16 23H4c-2.2 0-3-1.8-3-3v-3c0-.6.4-1 1-1h2V4c0-1.2.8-3 3-3h13c2.2 0 3 1.8 3 3v3c0 .6-.4 1-1 1h-3v12c0 1.2-.8 3-3 3zm0-2c.8 0 1-.5 1-1V4c0-.3.1-.7.2-1H7c-.8 0-1 .6-1 1v12h8c.6 0 1 .4 1 1v3c0 .5.2 1 1 1zM3 18v2c0 .5.2 1 1 1h9.2c-.1-.3-.2-.7-.2-1v-2H3zM19 6h2V4c0-.4-.2-1-1-1s-1 .6-1 1v2zm-5 7H9c-.6 0-1-.4-1-1s.4-1 1-1h5c.6 0 1 .4 1 1s-.4 1-1 1zm0-4H9c-.6 0-1-.4-1-1s.4-1 1-1h5c.6 0 1 .4 1 1s-.4 1-1 1z"/></svg><svg version="1.0" viewBox="0 0 24 24" xml:space="preserve" id="search" xmlns="http://www.w3.org/2000/svg"><path d="M22 23c-.3 0-.5-.1-.7-.3l-4-4C15.6 20.2 13.4 21 11 21 5.5 21 1 16.5 1 11S5.5 1 11 1s10 4.5 10 10c0 2.4-.8 4.6-2.3 6.3l4 4c.4.4.4 1 0 1.4-.2.2-.4.3-.7.3zM11 3c-4.4 0-8 3.6-8 8s3.6 8 8 8 8-3.6 8-8-3.6-8-8-8z"/></svg><svg version="1.0" viewBox="0 0 24 24" xml:space="preserve" id="security" xmlns="http://www.w3.org/2000/svg"><path d="M12 22.6c-.2 0-.4-.1-.5-.2-.6-.4-1.3-.8-1.8-1.1-3.5-2.1-5.8-3.6-5.8-7.3V4.8c0-.6.4-1 1-1 2.7 0 4.1-.1 6.6-2.2.4-.3.9-.3 1.3 0 2.4 2.1 3.8 2.2 6.6 2.2.6 0 1 .4 1 1V14c0 3.7-2.3 5.1-5.8 7.3-.6.3-1.2.7-1.8 1.1-.4.1-.6.2-.8.2zM5.8 5.8V14c0 2.5 1.3 3.4 4.9 5.6.4.3.9.5 1.3.8.5-.3.9-.6 1.3-.8 3.6-2.2 4.9-3.1 4.9-5.6V5.8c-2.2 0-3.9-.4-6.2-2.1-2.3 1.7-4 2-6.2 2.1z"/></svg><svg version="1.0" viewBox="0 0 25 25" xml:space="preserve" id="send" xmlns="http://www.w3.org/2000/svg"><path d="M12.9 23.4c-.1 0-.1 0 0 0-.9 0-1.6-.5-1.9-1.3l-2.5-6.5L1.9 13c-.8-.3-1.3-1-1.3-1.8S1 9.7 1.8 9.3L20.5.8c.8-.3 1.6-.2 2.2.4s.8 1.5.4 2.2l-8.5 18.7c-.3.8-1 1.3-1.7 1.3zM2.6 11.2l6.6 2.5c.5.2.9.6 1.1 1.1l2.5 6.6 8.5-18.7-18.7 8.5z"/></svg><svg version="1.0" viewBox="0 0 24 24" xml:space="preserve" id="settings" xmlns="http://www.w3.org/2000/svg"><path d="M12 17c-2.7 0-5-2.2-5-5s2.2-5 5-5 5 2.2 5 5-2.3 5-5 5zm0-8c-1.6 0-3 1.3-3 3s1.3 3 3 3 3-1.3 3-3-1.4-3-3-3z"/><path d="M12 24c-1.1 0-2-.5-2.6-1.4l-.7-1.2c-.2-.4-.7-.6-1.1-.5l-1.3.3c-1 .3-2.1 0-2.8-.8s-1-1.8-.8-2.8l.3-1.3c.1-.4-.1-.9-.5-1.1l-1.2-.7C.5 14 0 13.1 0 12s.5-2 1.4-2.6l1.2-.7c.4-.2.6-.6.5-1l-.4-1.4c-.3-1 0-2.1.8-2.8.7-.7 1.8-1 2.8-.8l1.3.3c.5.2.9 0 1.2-.4l.7-1.2C10 .5 10.9 0 12 0s2 .5 2.5 1.4l.7 1.2c.2.4.7.6 1.1.5l1.3-.3c1-.3 2.1 0 2.8.8.7.7 1 1.8.8 2.8l-.3 1.3c-.1.4.1.9.5 1.1l1.2.7c.9.5 1.4 1.4 1.4 2.5s-.5 2-1.4 2.6l-1.2.7c-.4.2-.6.7-.5 1.1l.3 1.3c.3 1 0 2.1-.8 2.8-.7.7-1.8 1-2.8.8l-1.3-.3c-.4-.1-.9.1-1.1.5l-.7 1.2c-.5.8-1.4 1.3-2.5 1.3zm-4.1-5.1c1 0 2 .5 2.5 1.4l.7 1.2c.3.5.7.5.9.5.2 0 .6 0 .9-.5l.7-1.2c.7-1.1 2-1.7 3.3-1.4l1.3.3c.5.1.8-.1.9-.3.1-.1.4-.5.3-.9l-.4-1.2c-.3-1.3.2-2.6 1.4-3.3l1.2-.7c.4-.2.4-.6.4-.8 0-.2 0-.6-.5-.8l-1.2-.7c-1.1-.7-1.7-2-1.4-3.3l.3-1.3c.1-.5-.1-.8-.3-.9-.1-.1-.5-.4-.9-.3l-1.2.3c-1.3.3-2.6-.2-3.3-1.4l-.7-1.2c-.2-.4-.6-.4-.8-.4-.2 0-.6 0-.9.5l-.7 1.2C9.8 4.8 8.5 5.3 7.2 5l-1.3-.3c-.5-.2-.9.1-1 .2-.1.1-.4.5-.2 1L5 7.2c.3 1.3-.2 2.6-1.4 3.3l-1.2.7c-.4.2-.4.6-.4.8 0 .2 0 .6.5.9l1.2.7c1.1.7 1.7 2 1.4 3.3l-.3 1.3c-.1.5.1.8.3.9.1.1.5.4.9.3l1.2-.4c.2 0 .5-.1.7-.1z"/></svg><svg version="1.0" viewBox="0 0 24 24" xml:space="preserve" id="settings-sliders" xmlns="http://www.w3.org/2000/svg"><path d="M7.8 22.6c-.6 0-1-.4-1-1v-1.4H2.4c-.6 0-1-.4-1-1s.4-1 1-1h4.4v-1.4c0-.6.4-1 1-1s1 .4 1 1v4.8c0 .6-.4 1-1 1zm13.8-2.4H12c-.6 0-1-.4-1-1s.4-1 1-1h9.6c.6 0 1 .4 1 1s-.4 1-1 1zM12 15.4c-.6 0-1-.4-1-1V13H2.4c-.6 0-1-.4-1-1s.4-1 1-1H11V9.6c0-.6.4-1 1-1s1 .4 1 1v4.8c0 .6-.4 1-1 1zm9.6-2.4h-4.8c-.6 0-1-.4-1-1s.4-1 1-1h4.8c.6 0 1 .4 1 1s-.4 1-1 1zm-4.8-4.8c-.6 0-1-.4-1-1V2.4c0-.6.4-1 1-1s1 .4 1 1v1.4h3.8c.6 0 1 .4 1 1s-.4 1-1 1h-3.8v1.4c0 .6-.4 1-1 1zM12 5.8H2.4c-.6 0-1-.4-1-1s.4-1 1-1H12c.6 0 1 .4 1 1s-.4 1-1 1z"/></svg><svg version="1.0" viewBox="0 0 24 24" xml:space="preserve" id="share-android" xmlns="http://www.w3.org/2000/svg"><path d="M18 14c-.6 0-1.2.1-1.7.4-.5.3-1 .6-1.4 1.1l-5.1-2.3c.2-.7.2-1.5 0-2.3l5.1-2.3c.6.7 1.4 1.2 2.4 1.4.9.2 1.9 0 2.7-.5.8-.5 1.4-1.2 1.8-2.1.3-.9.3-1.9 0-2.7-.4-1-1-1.7-1.8-2.2-.8-.5-1.8-.6-2.7-.5-.9.2-1.8.7-2.4 1.4-.6.8-.9 1.7-.9 2.6 0 .2 0 .5.1.7L8.8 9.2c-.6-.6-1.3-.9-2-1.1-.8-.2-1.6-.1-2.4.2-.7.3-1.3.8-1.7 1.5-.5.7-.7 1.4-.7 2.2s.2 1.6.7 2.2c.4.7 1.1 1.2 1.8 1.5.7.3 1.5.4 2.2.2s1.5-.5 2-1.1l5.3 2.4c0 .2-.1.5-.1.7 0 .8.2 1.6.7 2.2.4.7 1.1 1.2 1.8 1.5.7.3 1.5.4 2.3.2.8-.2 1.5-.5 2-1.1s.9-1.3 1.1-2c.2-.8.1-1.6-.2-2.3-.3-.7-.8-1.4-1.5-1.8-.5-.3-1.3-.6-2.1-.6zm0-10c.4 0 .8.1 1.1.3.3.2.6.5.7.9.2.4.2.8.2 1.2-.1.4-.3.7-.5 1-.3.3-.6.5-1 .5-.4.1-.8 0-1.2-.1-.4-.2-.7-.4-.9-.7-.3-.3-.4-.7-.4-1.1 0-.5.2-1 .6-1.4.4-.4.9-.6 1.4-.6zM6 14c-.4 0-.8-.1-1.1-.3-.3-.2-.6-.5-.7-.9-.2-.4-.2-.8-.2-1.2.1-.4.3-.7.5-1 .3-.3.6-.5 1-.5.5-.1.9-.1 1.3.1s.7.4.9.7c.2.3.3.7.3 1.1 0 .5-.2 1-.6 1.4-.4.4-.9.6-1.4.6zm12 6c-.4 0-.8-.1-1.1-.3-.3-.2-.6-.5-.7-.9-.2-.4-.2-.8-.2-1.2.1-.4.3-.7.5-1 .3-.3.6-.5 1-.5.4-.1.8 0 1.2.1.4.2.7.4.9.7.2.3.3.7.3 1.1 0 .5-.2 1-.6 1.4-.3.4-.8.6-1.3.6z"/></svg><svg version="1.0" viewBox="0 0 24 24" xml:space="preserve" id="share-ios" xmlns="http://www.w3.org/2000/svg"><path fill-rule="evenodd" clip-rule="evenodd" d="M6.3 22.9c-1.5 0-2.7-1.2-2.7-2.7v-6.3c0-1.5 1.2-2.7 2.7-2.7h1.4c.5 0 .9.4.9.9s-.4.9-.8.9H6.3c-.5 0-.9.4-.9.9v6.3c0 .5.4.9.9.9h11.3c.5 0 .9-.4.9-.9v-6.3c0-.5-.4-.9-.9-.9h-1.4c-.5 0-.9-.4-.9-.9s.4-.9.9-.9h1.4c1.5 0 2.7 1.2 2.7 2.7v6.3c0 1.5-1.2 2.7-2.7 2.7H6.3z"/><path fill-rule="evenodd" clip-rule="evenodd" d="M12 15.7c.5 0 .9-.4.9-.9V4l4.6 4.1c.4.3 1 .3 1.3-.1.3-.4.3-1-.1-1.3l-5.8-5.3c-.5-.5-1.3-.5-1.8 0L5.4 6.7c-.4.4-.4.9-.1 1.3.3.4.9.4 1.3.1l4.6-4.2v10.9c-.1.5.3.9.8.9z"/></svg><svg version="1.0" viewBox="0 0 24 24" xml:space="preserve" id="sort-ascending" xmlns="http://www.w3.org/2000/svg"><path d="M12 21.5c-.6 0-1-.4-1-1V5.9L5.7 11c-.4.4-1 .4-1.4 0-.4-.4-.4-1 0-1.4l7-6.7c.4-.4 1-.4 1.4 0l7 6.7c.4.4.4 1 0 1.4s-1 .4-1.4 0L13 5.8v14.7c0 .6-.5 1-1 1z"/></svg><svg version="1.0" viewBox="0 0 24 24" xml:space="preserve" id="sort-descending" xmlns="http://www.w3.org/2000/svg"><path d="M12 21.5c-.2 0-.5-.1-.7-.3l-7-6.7c-.4-.4-.4-1 0-1.4.4-.4 1-.4 1.4 0l5.3 5.1V3.5c0-.6.4-1 1-1s1 .4 1 1v14.7l5.3-5.1c.4-.4 1-.4 1.4 0 .4.4.4 1 0 1.4l-7 6.7c-.2.2-.5.3-.7.3z"/></svg><svg version="1.0" viewBox="0 0 25 24" xml:space="preserve" id="sound-muted" xmlns="http://www.w3.org/2000/svg"><path d="M11.3 20c-.2 0-.4-.1-.6-.2L6 16H2.3c-.6 0-1-.4-1-1V9c0-.6.4-1 1-1H6l4.7-3.8c.3-.2.7-.3 1.1-.1.3.2.6.5.6.9v14c0 .4-.2.7-.6.9-.2.1-.3.1-.5.1zm-8-6h3c.2 0 .4.1.6.2l3.4 2.7V7.1L6.9 9.8c-.1.1-.4.2-.6.2h-3v4zm19.4 2.4c-.3 0-.5-.1-.7-.3l-2.5-2.5-2.5 2.5c-.4.4-1 .4-1.4 0s-.4-1 0-1.4l2.5-2.5-2.5-2.5c-.4-.4-.4-1 0-1.4s1-.4 1.4 0l2.5 2.5L22 8.3c.4-.4 1-.4 1.4 0s.4 1 0 1.4l-2.5 2.5 2.5 2.5c.4.4.4 1 0 1.4-.2.2-.5.3-.7.3z"/></svg><svg version="1.0" viewBox="0 0 24 24" xml:space="preserve" id="sound-playing" xmlns="http://www.w3.org/2000/svg"><path d="M1 9.4v-1c-.6 0-1 .4-1 1h1zm9-4h1c0-.4-.2-.7-.6-.9-.3-.2-.8-.1-1.1.1l.7.8zm0 14-.6.8c.3.2.7.3 1.1.1.3-.2.6-.5.6-.9H10zm-9-4H0c0 .6.4 1 1 1v-1zm4 0 .6-.8c-.2-.1-.4-.2-.6-.2v1zm0-6v1c.2 0 .4-.1.6-.2L5 9.4zm15.4-5.9c-.4-.4-1-.4-1.4 0-.4.4-.4 1 0 1.4l1.4-1.4zm1.7 4.3-.9.4.9-.4zm0 8.4.9.4-.9-.4zM19 19.1c-.4.4-.4 1 0 1.4.4.4 1 .4 1.4 0L19 19.1zM16.2 7.3c-.4-.4-1-.4-1.4 0-.4.4-.4 1 0 1.4l1.4-1.4zm.6 2.7-.9.4.9-.4zm0 4.6-.9-.4.9.4zm-2 1.2c-.4.4-.4 1 0 1.4.4.4 1 .4 1.4 0l-1.4-1.4zM9 5.4v14h2v-14H9zm-7 10v-6H0v6h2zm8.7 3.2-5-4-1.2 1.6 5 4 1.2-1.6zM5 14.4H1v2h4v-2zm-4-4h4v-2H1v2zm4.7-.2 5-4-1.3-1.6-5 4 1.3 1.6zM19 4.9c.9.9 1.7 2 2.2 3.2l1.8-.7c-.6-1.5-1.5-2.8-2.6-3.9L19 4.9zm2.2 3.3c.5 1.2.8 2.5.8 3.8h2c0-1.6-.3-3.1-.9-4.6l-1.9.8zM22 12c0 1.3-.3 2.6-.8 3.8l1.8.8c.6-1.5.9-3 .9-4.6H22zm-.8 3.8c-.5 1.2-1.2 2.3-2.2 3.3l1.4 1.4c1.1-1.1 2-2.4 2.6-3.9l-1.8-.8zm-6.4-7.1c.5.5.8 1 1.1 1.6l1.8-.8c-.4-.8-.9-1.6-1.5-2.3l-1.4 1.5zm1 1.7c.3.6.4 1.3.4 1.9h2c0-.9-.2-1.8-.5-2.7l-1.9.8zm.4 1.9c0 .7-.1 1.3-.4 1.9l1.8.8c.4-.8.5-1.8.5-2.7h-1.9zm-.4 1.9c-.3.6-.6 1.2-1.1 1.6l1.4 1.4c.7-.6 1.2-1.4 1.5-2.3l-1.8-.7z"/></svg><svg version="1.0" viewBox="0 0 24 24" xml:space="preserve" id="star" xmlns="http://www.w3.org/2000/svg"><path d="M17.6 22.9c-.4 0-.7-.1-1-.3L12 19.3l-4.6 3.2c-.6.4-1.4.4-2 0-.6-.4-.9-1.1-.7-1.8l1.4-6-4.4-3.6c-.5-.4-.8-1.1-.6-1.8.2-.7.8-1.2 1.4-1.3l5.7-.8 2.1-5.1c.3-.7.9-1.1 1.6-1.1.7 0 1.3.4 1.6 1.1l2.1 5.1 5.7.8c.7.1 1.3.6 1.4 1.3.2.7 0 1.4-.6 1.8l-4.4 3.6 1.4 6c.2.7-.1 1.4-.7 1.8-.1.3-.4.4-.8.4zM3.4 10l4 3.3c.6.4.8 1.1.7 1.7l-1.3 5.6 4.2-3c.6-.4 1.4-.4 2 0l4.2 3L16 15c-.2-.7.1-1.3.6-1.8l4-3.3-5.2-.7c-.6-.1-1.1-.5-1.4-1.1l-2-4.7-2 4.7c-.2.6-.8 1-1.4 1.1l-5.2.8zm7.9-7.4z"/></svg><svg version="1.0" viewBox="0 0 24 24" xml:space="preserve" id="success" xmlns="http://www.w3.org/2000/svg"><path d="m10.4 16.5-4.1-4.1c-.4-.4-.4-1 0-1.4s1-.4 1.4 0l2.7 2.7 6-6c.4-.4 1-.4 1.4 0s.4 1 0 1.4l-7.4 7.4z"/><path d="M12 24C5.4 24 0 18.6 0 12S5.4 0 12 0s12 5.4 12 12-5.4 12-12 12zm0-22C6.5 2 2 6.5 2 12s4.5 10 10 10 10-4.5 10-10S17.5 2 12 2z"/></svg><svg version="1.0" viewBox="0 0 24 24" xml:space="preserve" id="suitcase" xmlns="http://www.w3.org/2000/svg"><path d="M19.5 21.5h-15c-1.9 0-3.5-1.6-3.5-3.6V10c0-2 1.6-3.6 3.5-3.6h2.8V4.8c0-1.3 1-2.3 2.2-2.3h4.4c1.2 0 2.2 1 2.2 2.3v1.6h3.4C21.4 6.4 23 8 23 10v7.8c0 2.1-1.6 3.7-3.5 3.7zM4.5 8.4C3.7 8.4 3 9.1 3 10v7.8c0 .9.7 1.6 1.5 1.6h15c.8 0 1.5-.7 1.5-1.6V10c0-.9-.7-1.6-1.5-1.6h-15zm4.7-2h4.9V4.8c0-.2-.1-.3-.2-.3H9.5c-.1 0-.2.1-.2.3v1.6z"/></svg><svg version="1.0" viewBox="0 0 24 24" xml:space="preserve" id="sun" xmlns="http://www.w3.org/2000/svg"><path d="M12 22.6c-.6 0-1-.4-1-1v-.7c0-.6.4-1 1-1s1 .4 1 1v.7c0 .6-.4 1-1 1zm6.8-2.8c-.3 0-.5-.1-.7-.3l-.5-.5c-.4-.4-.4-1 0-1.4.4-.4 1-.4 1.4 0l.5.5c.4.4.4 1 0 1.4-.2.2-.5.3-.7.3zm-13.6 0c-.3 0-.5-.1-.7-.3-.4-.4-.4-1 0-1.4l.5-.5c.4-.4 1-.4 1.4 0 .4.4.4 1 0 1.4l-.5.5c-.2.2-.4.3-.7.3zm6.8-1.5c-3.5 0-6.3-2.8-6.3-6.3S8.5 5.7 12 5.7s6.3 2.8 6.3 6.3-2.8 6.3-6.3 6.3zm0-10.6c-2.4 0-4.3 1.9-4.3 4.3s1.9 4.3 4.3 4.3 4.3-1.9 4.3-4.3-1.9-4.3-4.3-4.3zm9.6 5.3h-.7c-.6 0-1-.4-1-1s.4-1 1-1h.7c.6 0 1 .4 1 1s-.4 1-1 1zM3.1 13h-.7c-.6 0-1-.4-1-1s.4-1 1-1h.7c.6 0 1 .4 1 1s-.5 1-1 1zm2.6-6.3c-.3 0-.5-.1-.7-.3l-.5-.5c-.4-.4-.4-1 0-1.4s1-.4 1.4 0l.5.5c.4.4.4 1 0 1.4-.2.2-.5.3-.7.3zm12.6 0c-.3 0-.5-.1-.7-.3-.4-.4-.4-1 0-1.4l.5-.5c.4-.4 1-.4 1.4 0 .4.4.4 1 0 1.4l-.5.5c-.2.2-.4.3-.7.3zM12 4.1c-.6 0-1-.4-1-1v-.7c0-.6.4-1 1-1s1 .4 1 1v.7c0 .5-.4 1-1 1z"/></svg><svg version="1.0" viewBox="0 0 24 24" xml:space="preserve" id="sunrise" xmlns="http://www.w3.org/2000/svg"><path d="M12 4.6c-.1 0-.2 0-.3.1-.1 0-.2.1-.3.2-.1.1-.1.2-.2.3 0 .1-.1.2-.1.3v2.7c0 .1 0 .2.1.3 0 .1.1.2.2.3.1.1.2.2.3.2.1 0 .2.1.3.1s.2 0 .3-.1c.1 0 .2-.1.3-.2.1-.1.1-.2.2-.3 0-.1.1-.2.1-.3V5.5c0-.1 0-.2-.1-.3 0-.1-.1-.2-.2-.3-.1-.1-.2-.2-.3-.2-.1-.1-.2-.1-.3-.1zM5.5 6.4c-.2 0-.3 0-.5.1l-.3.3c-.1.2-.1.3-.1.5s.1.3.2.5L6 9.6l.2.2c.1.1.2.1.3.1h.3c.1 0 .2-.1.3-.1.1-.1.2-.1.2-.2.1-.1.1-.2.1-.3V9c0-.1-.1-.2-.1-.3L6.2 6.8c0-.2-.2-.3-.3-.3-.1-.1-.3-.1-.4-.1zm13 0c-.1 0-.3 0-.4.1l-.3.3-1.2 1.8c-.1.2-.2.4-.1.7 0 .2.2.4.4.6.2.1.4.2.7.1.2 0 .4-.2.6-.4l1.2-1.8c.1-.1.1-.3.2-.5 0-.2 0-.3-.1-.5s-.4-.2-.5-.3c-.1-.1-.3-.1-.5-.1zM12 9.9c-4.4 0-8.1 3.4-8.6 7.7H1.8c-.1 0-.2 0-.3.1-.1.1-.2.1-.3.2-.1.1-.1.2-.2.3 0 .1-.1.2 0 .3 0 .1 0 .2.1.3.1.1.1.2.2.3s.2.1.3.2c.1 0 .2.1.3 0h20.2c.1 0 .2 0 .3-.1.1 0 .2-.1.3-.2.1-.1.2-.2.2-.3 0-.1.1-.2.1-.3 0-.1 0-.2-.1-.3 0-.1-.1-.2-.2-.3-.1-.1-.2-.1-.3-.2-.1 0-.2-.1-.3-.1h-1.5c-.5-4.2-4.1-7.6-8.6-7.6zM1.8 11.7c-.2 0-.4.1-.5.2-.1.1-.2.3-.3.5v.5c.1.2.2.3.3.4l.9.6c.1.1.2.1.3.2h.4c.1 0 .2-.1.3-.1l.3-.3c.1-.1.1-.2.1-.3V13c0-.1-.1-.2-.2-.3-.1-.1-.2-.2-.3-.2l-.9-.6c.1-.2-.2-.2-.4-.2zm20.3 0c-.2 0-.3.1-.5.2l-.9.6c-.1.1-.2.1-.3.2s-.1.2-.2.3v.4c0 .1.1.2.1.3l.3.3c.1.1.2.1.3.1h.4c.1 0 .2-.1.3-.2l.9-.6c.2-.1.3-.3.3-.4.1-.2.1-.4 0-.6-.1-.2-.2-.3-.3-.5 0 0-.2-.1-.4-.1zm-10.1 0c3.5 0 6.3 2.6 6.8 5.9H5.3c.4-3.3 3.2-5.9 6.7-5.9z"/></svg><svg version="1.0" viewBox="0 0 25 25" xml:space="preserve" id="tag" xmlns="http://www.w3.org/2000/svg"><path d="M12.8 23.9c-1.1 0-2.1-.4-2.8-1.2L1.3 14C.5 13.2.1 12.1.1 11l.3-8.6c0-1 .9-1.9 1.9-1.9L11 .1c1.1-.1 2.2.4 3 1.2l8.7 8.7c1.6 1.6 1.6 4.1 0 5.7l-7.1 7.1c-.7.7-1.7 1.1-2.8 1.1zM11.2 2.1s-.1 0 0 0l-8.7.4-.3 8.6c0 .6.2 1.1.6 1.5l8.7 8.7c.8.8 2.1.8 2.8 0l7.1-7.1c.8-.8.8-2 0-2.8l-8.7-8.7c-.5-.4-1-.6-1.5-.6z"/><path d="M8 9.4c-1.1 0-2-.9-2-2s.9-2 2-2 2 .9 2 2-.9 2-2 2zm0-2z"/></svg><svg version="1.0" viewBox="0 0 24 24" xml:space="preserve" id="target" xmlns="http://www.w3.org/2000/svg"><path d="M22.1 12.6c0-.6-.4-1-1-1s-1 .4-1 1h2zM11.5 4c.6 0 1-.4 1-1s-.4-1-1-1v2zm5.8 8.6c0-.6-.4-1-1-1s-1 .4-1 1h2zm-5.8-3.8c.6 0 1-.4 1-1s-.4-1-1-1v2zm4.9.1c.4-.4.4-1 0-1.4-.4-.4-1-.4-1.4 0l1.4 1.4zm-5.6 2.8c-.4.4-.4 1 0 1.4.4.4 1 .4 1.4 0l-1.4-1.4zm11.3-6.5.7.7c.3-.3.4-.7.2-1-.1-.4-.4-.6-.8-.7l-.1 1zM18.3 9l-.3 1c.4.1.8 0 1-.2l-.7-.8zm-3.4-3.4-.7-.7c-.3.3-.4.7-.2 1l.9-.3zm3.8-3.8 1-.1c-.1-.4-.3-.7-.7-.8-.4-.1-.8 0-1 .2l.7.7zm-3 6.4-.9.3c.1.3.3.5.6.6l.3-.9zm3.4-3.4-1 .1c.1.4.4.8.8.8l.2-.9zm1 7.8c0 4.7-3.9 8.6-8.6 8.6v2c5.9 0 10.6-4.7 10.6-10.6h-2zm-8.6 8.6c-4.7 0-8.6-3.9-8.6-8.6h-2c0 5.9 4.7 10.6 10.6 10.6v-2zm-8.6-8.6C2.9 7.9 6.7 4 11.5 4V2C5.6 2 .9 6.7.9 12.6h2zm12.4 0c0 2.1-1.7 3.8-3.8 3.8v2c3.2 0 5.8-2.6 5.8-5.8h-2zm-3.8 3.8c-2.1 0-3.8-1.7-3.8-3.8h-2c0 3.2 2.6 5.8 5.8 5.8v-2zm-3.8-3.8c0-2.1 1.7-3.8 3.8-3.8v-2c-3.2 0-5.8 2.6-5.8 5.8h2zM15 7.5l-4.2 4.2 1.4 1.4 4.2-4.2L15 7.5zm6.4-3-3.8 3.8L19 9.7l3.8-3.8-1.4-1.4zm-5.8 1.8 3.8-3.8L18 1.1l-3.8 3.8 1.4 1.4zm3 1.8-2.5-.8-.6 1.9 2.5.8.6-1.9zm-1.9-.3-.8-2.5-1.9.6.8 2.5 1.9-.6zm1-5.9.4 3 2-.3-.4-3-2 .3zM19 5.8l3 .4.3-2-3-.4-.3 2z"/></svg><svg version="1.0" viewBox="0 0 24 24" xml:space="preserve" id="temp-1" xmlns="http://www.w3.org/2000/svg"><path d="M17.5 21c-2.2 0-4-1.8-4-4s1.8-4 4-4 4 1.8 4 4-1.8 4-4 4zm0-6c-1.1 0-2 .9-2 2s.9 2 2 2 2-.9 2-2-.9-2-2-2zm-11-4c-2.2 0-4-1.8-4-4s1.8-4 4-4 4 1.8 4 4-1.8 4-4 4zm0-6c-1.1 0-2 .9-2 2s.9 2 2 2 2-.9 2-2-.9-2-2-2z"/></svg><svg version="1.0" viewBox="0 0 24 24" xml:space="preserve" id="thumbs-down" xmlns="http://www.w3.org/2000/svg"><path d="M11.5 23.9c-1 0-1.8-.6-2.2-1.5L6 14.6c-.1-.4-.5-.6-.9-.6H4c-2.2 0-4-1.8-4-4V4.1c0-2.2 1.8-4 4-4h14.4c1.9 0 3.5 1.3 3.9 3.1l1.7 7.9c.3 1.2 0 2.4-.8 3.3-.8 1-2 1.6-3.2 1.6h-4.6c-.2 0-.3.1-.4.2-.1.1-.1.2-.1.4l.4 3.1c.1 1.1-.2 2.2-.9 3-.7.7-1.8 1.2-2.9 1.2zm-3.6-10 3.3 7.7c.1.2.2.3.4.3.5 0 1-.2 1.4-.6.3-.4.5-.9.4-1.4l-.4-3.2c-.1-.7.1-1.4.6-1.9s1.1-.8 1.8-.8H20c.6 0 1.2-.3 1.5-.7.4-.5.5-1.1.4-1.7l-1.7-7.9c-.2-.9-1-1.6-1.9-1.6H7.9v11.8zM4 2.1c-1.1 0-2 .9-2 2V10c0 1.1.9 2 2 2h1.2c.3 0 .6 0 .8.1v-10H4z"/></svg><svg version="1.0" viewBox="0 0 24 24" xml:space="preserve" id="thumbs-up" xmlns="http://www.w3.org/2000/svg"><path d="M18.4 23.9H4c-2.2 0-4-1.8-4-4V14c0-2.2 1.8-4 4-4h1.2c.3 0 .7-.2.8-.6l3.3-7.8C9.7.7 10.5.1 11.5.1c1.1 0 2.1.5 2.8 1.3.7.8 1.1 1.9.9 3l-.4 3.1c0 .2.1.3.1.4.2 0 .3.1.5.1H20c1.2 0 2.3.5 3.1 1.5.8.9 1 2.1.8 3.3l-1.7 7.9c-.4 1.8-2 3.2-3.8 3.2zm-10.5-2h10.4c.9 0 1.7-.7 1.9-1.6l1.7-7.9c.1-.6 0-1.2-.4-1.7-.3-.4-.9-.7-1.5-.7h-4.6c-.7 0-1.4-.3-1.8-.8-.5-.5-.7-1.2-.6-1.9l.4-3.1c.1-.5-.1-1-.4-1.4-.3-.4-.8-.6-1.4-.6-.2 0-.3.1-.4.3l-3.3 7.7v11.7zM4 12c-1.1 0-2 .9-2 2v5.9c0 1.1.9 2 2 2h2v-10c-.3.1-.6.1-.9.1H4z"/></svg><svg version="1.0" viewBox="0 0 24 24" xml:space="preserve" id="transfer" xmlns="http://www.w3.org/2000/svg"><path d="M18 22.6c-.3 0-.5-.1-.7-.3-.4-.4-.4-1 0-1.4l1.9-1.9H2.4c-.6 0-1-.4-1-1s.4-1 1-1h16.8l-1.9-1.9c-.4-.4-.4-1 0-1.4s1-.4 1.4 0l3.6 3.6c.1.1.2.2.2.3 0 .1.1.2.1.4 0 .1 0 .3-.1.4 0 .1-.1.2-.2.3l-3.6 3.6c-.2.2-.4.3-.7.3zm-12-12c-.3 0-.5-.1-.7-.3L1.7 6.7c-.1-.1-.2-.2-.2-.3 0-.1-.1-.2-.1-.4s0-.3.1-.4c0-.1.1-.2.2-.3l3.6-3.6c.4-.4 1-.4 1.4 0s.4 1 0 1.4L4.8 5h16.8c.6 0 1 .4 1 1s-.4 1-1 1H4.8l1.9 1.9c.4.4.4 1 0 1.4-.2.2-.4.3-.7.3z"/></svg><svg version="1.0" viewBox="0 0 24 24" xml:space="preserve" id="travel" xmlns="http://www.w3.org/2000/svg"><path d="M16.7 22.6h-.2c-.3-.1-.6-.3-.7-.7l-2.4-7.1-1.9 1.9v2.4c0 .3-.1.5-.3.7l-1.9 1.9c-.2.2-.6.3-.9.3-.3-.1-.6-.3-.7-.5L5.9 18l-3.5-1.8c-.3-.1-.5-.4-.5-.7-.1-.3.1-.6.3-.9l1.9-1.9c.2-.2.4-.3.7-.3h2.4l1.9-1.9-7-2.3c-.3-.1-.6-.3-.7-.7-.1-.3 0-.7.3-.9l2.9-2.9c.3-.3.6-.4 1-.3L14 5.7l3.4-3.4c1.2-1.2 3.1-1.2 4.3 0 .6.6.9 1.3.9 2.1s-.3 1.6-.9 2.1L18.3 10l2.2 8.5c.1.3 0 .7-.3 1l-2.9 2.9c-.1.1-.3.2-.6.2zM13.9 12h.2c.3.1.6.3.7.7l2.4 7.1 1.3-1.3-2.2-8.5c-.1-.3 0-.7.3-1l3.8-3.8c.2-.2.3-.5.3-.7 0-.3-.1-.5-.3-.7-.4-.4-1.1-.4-1.4 0l-4 3.7c-.3.3-.6.3-1 .3L5.6 5.5 4.3 6.8l7.1 2.4c.3.1.6.4.7.7.1.3 0 .7-.3.9l-3.3 3.3c-.2.2-.4.3-.7.3H5.2l-.6.6 2.6 1.3c.2.1.4.3.4.4l1.3 2.6.6-.6v-2.4c0-.3.1-.5.3-.7l3.3-3.3c.2-.2.5-.3.8-.3z"/></svg><svg version="1.0" viewBox="0 0 24 24" xml:space="preserve" id="upload" xmlns="http://www.w3.org/2000/svg"><path d="M18.3 22H5.7c-.8 0-1.6-.3-2.2-.9-.6-.6-.9-1.4-.9-2.2v-3.7c0-.6.4-1 1-1s1 .4 1 1v3.7c0 .3.1.6.3.8.2.2.5.3.8.3h12.6c.3 0 .6-.1.8-.3.2-.2.3-.5.3-.8v-3.7c0-.6.4-1 1-1s1 .4 1 1v3.7c0 .8-.3 1.6-.9 2.2-.6.6-1.4.9-2.2.9zM12 16c-.6 0-1-.4-1-1V5.3l-3.1 3c-.4.4-1 .4-1.4 0-.4-.4-.4-1 0-1.4l4.8-4.6c.1-.1.2-.1.3-.2.2-.1.3-.1.4-.1.1 0 .2 0 .3.1h.1c.1 0 .2.1.3.2l4.8 4.6c.4.4.4 1 0 1.4-.4.4-1 .4-1.4 0l-3.1-3V15c0 .5-.4 1-1 1z"/></svg><svg version="1.0" viewBox="0 0 24 24" xml:space="preserve" id="vehicle" xmlns="http://www.w3.org/2000/svg"><path d="M17.9 19.2c-1.4 0-2.6-1-3-2.3H9c-.4 1.3-1.6 2.3-3 2.3s-2.6-1-3-2.3h-.6c-.3 0-.6-.1-.8-.2-.3-.1-.5-.3-.7-.5-.2-.2-.4-.5-.5-.7-.1-.3-.2-.6-.1-.9v-3.1c0-.6.2-1.1.6-1.5.4-.4 1-.6 1.5-.6h4l.4-1.7c.2-.9.7-1.6 1.4-2.2.8-.5 1.7-.7 2.5-.7h6.1c.9 0 1.7.3 2.4.8s1.2 1.3 1.4 2.1l.5 1.7h.4c.6 0 1.1.2 1.5.6.4.4.6 1 .6 1.5v3.2c0 .6-.2 1.1-.6 1.5-.4.4-1 .6-1.5.6h-.6c-.3 1.5-1.5 2.4-3 2.4zm0-4.6c-.9 0-1.6.7-1.6 1.6 0 .9.7 1.6 1.6 1.6s1.6-.7 1.6-1.6c0-.9-.7-1.6-1.6-1.6zM4.4 16.4c.1.8.8 1.3 1.6 1.3s1.5-.6 1.6-1.4v-.2c0-.8-.7-1.5-1.6-1.5-.8 0-1.5.6-1.6 1.4v.2c.1.1 0 .2 0 .2zm16.5-.9h.6c.2 0 .4-.1.5-.2.1-.1.2-.3.2-.5v-3.2c0-.2-.1-.4-.2-.5-.1-.1-.3-.2-.5-.2H2.4c-.2 0-.3.1-.5.2-.1.1-.2.3-.2.5V15c0 .1.1.2.1.2.1.1.1.1.2.1s.2.1.3.1H3C3.3 14 4.5 13 6 13s2.7 1 3 2.4h5.9c.3-1.4 1.5-2.4 3-2.4s2.7 1.1 3 2.5zm-6.4-6.1h5l-.4-1.3c-.1-.5-.5-1-.9-1.3-.4-.3-.9-.5-1.5-.5h-2.3v3.1zM8 9.4h5V6.2h-2.3c-.5 0-1.1.2-1.5.5-.4.4-.7.9-.9 1.4L8 9.4z"/></svg><svg version="1.0" viewBox="0 0 24 24" xml:space="preserve" id="view" xmlns="http://www.w3.org/2000/svg"><path d="M12 21C7.6 21 3.4 18.3.8 13.8c-.6-1.1-.6-2.4 0-3.5C3.4 5.7 7.6 3 12 3c4.4 0 8.6 2.7 11.2 7.2.6 1.1.6 2.4 0 3.5C20.6 18.3 16.4 21 12 21zm0-16c-3.7 0-7.2 2.3-9.5 6.2-.3.5-.3 1 0 1.5 2.3 4 5.7 6.2 9.5 6.2 3.7 0 7.2-2.3 9.5-6.2.3-.5.3-1 0-1.5C19.2 7.3 15.7 5 12 5z"/><path d="M12 16c-2.2 0-4-1.8-4-4s1.8-4 4-4 4 1.8 4 4-1.8 4-4 4zm0-6c-1.1 0-2 .9-2 2s.9 2 2 2 2-.9 2-2-.9-2-2-2z"/></svg><svg version="1.0" viewBox="0 0 24 24" xml:space="preserve" id="wallet" xmlns="http://www.w3.org/2000/svg"><path d="M19 22H5c-2 0-3.6-1.6-3.6-3.6V4.8C1.4 3.3 2.5 2 3.9 2h13.9c.6 0 1 .4 1 1s-.4 1-1 1H3.9c-.2 0-.5.4-.5.8 0 .8.4 1.3.5 1.4h16c.8 0 1.5-.1 2.1.5.4.3.5.8.5 1.4v10.2C22.6 20.4 21 22 19 22zM3.4 8.2v10.2c0 .9.7 1.6 1.6 1.6h14c.9 0 1.6-.7 1.6-1.6V8.2H3.4zm13.1 6.1c-.3 0-.5-.1-.7-.3-.4-.4-.4-1 0-1.4s1-.4 1.4 0c.4.4.4 1 0 1.4-.2.2-.5.3-.7.3z"/></svg><svg version="1.0" viewBox="0 0 25 24" xml:space="preserve" id="wifi" xmlns="http://www.w3.org/2000/svg"><path d="M12 21.2c-1.1 0-2-.9-2-2s.9-2 2-2 2 .9 2 2-.9 2-2 2zm0-2zm-4.2-2.7c-.3 0-.5-.1-.7-.3-.4-.4-.4-1 0-1.4.7-.7 1.4-1.2 2.3-1.5 1.7-.7 3.6-.7 5.4 0 .9.4 1.6.9 2.3 1.5.4.4.4 1 0 1.4s-1 .4-1.4 0c-.5-.5-1-.8-1.6-1.1a5 5 0 0 0-3.8 0c-.6.3-1.2.6-1.6 1.1-.4.2-.7.3-.9.3zm12-3.5c-.3 0-.5-.1-.7-.3-.9-.9-2-1.7-3.2-2.2-2.4-1-5.2-1-7.7 0-1.2.5-2.3 1.2-3.3 2.2-.4.4-1 .4-1.4 0s-.4-1 0-1.4c1.1-1.1 2.4-2 3.9-2.6 2.9-1.2 6.3-1.2 9.2 0 1.5.6 2.8 1.5 3.9 2.6.4.4.4 1 0 1.4-.2.2-.5.3-.7.3zm3.5-3.6c-.3 0-.5-.1-.7-.3-1.4-1.4-3-2.5-4.9-3.3-3.7-1.5-7.8-1.5-11.5 0-1.8.8-3.4 1.9-4.8 3.3-.4.4-1 .4-1.4 0s-.4-1 0-1.4C1.6 6.1 3.4 4.9 5.5 4c4.1-1.7 8.9-1.7 13 0 2.1.9 3.9 2.1 5.5 3.7.4.4.4 1 0 1.4-.2.2-.4.3-.7.3z"/></svg><svg version="1.0" viewBox="0 0 24 24" xml:space="preserve" id="working-capital" xmlns="http://www.w3.org/2000/svg"><path d="M19 20H9c-1.7 0-3-1.3-3-3v-1H5c-.8 0-1.6-.3-2.1-.9-.6-.5-.9-1.3-.9-2.1V7c0-.8.3-1.6.9-2.1C3.4 4.3 4.2 4 5 4h10c.8 0 1.6.3 2.1.9.6.5.9 1.3.9 2.1v1h1c1.7 0 3 1.3 3 3v6c0 1.7-1.3 3-3 3zM8 15v2c0 .6.4 1 1 1h10c.6 0 1-.4 1-1v-6c0-.6-.4-1-1-1H9c-.6 0-1 .4-1 1v4zM5 6c-.3 0-.5.1-.7.3-.2.2-.3.4-.3.7v6c0 .3.1.5.3.7.2.2.4.3.7.3h1v-3c0-1.7 1.3-3 3-3h7V7c0-.3-.1-.5-.3-.7-.2-.2-.4-.3-.7-.3H5zm9 11c-1.7 0-3-1.3-3-3s1.3-3 3-3 3 1.3 3 3-1.3 3-3 3zm0-4c-.6 0-1 .4-1 1s.4 1 1 1 1-.4 1-1-.4-1-1-1z"/></svg></defs></svg>